/* XPM */
static char * colectible_xpm[] = {
"64 64 205 2",
"  	c #1C1117",
". 	c #422835",
"+ 	c #3F2633",
"@ 	c #3F2632",
"# 	c #3E2632",
"$ 	c #1D1218",
"% 	c #1D1117",
"& 	c #1E1318",
"* 	c #281B1B",
"= 	c #291C1C",
"- 	c #30211E",
"; 	c #2F201E",
"> 	c #392923",
", 	c #795C44",
"' 	c #7A5D45",
") 	c #826349",
"! 	c #A17B59",
"~ 	c #A27B5A",
"{ 	c #9C7756",
"] 	c #1A1017",
"^ 	c #7B5D45",
"/ 	c #7C5E46",
"( 	c #83644A",
"_ 	c #A37C5B",
": 	c #A47D5B",
"< 	c #9E7857",
"[ 	c #392822",
"} 	c #7A5C43",
"| 	c #7B5D44",
"1 	c #7C5D45",
"2 	c #836349",
"3 	c #A37C5A",
"4 	c #A47D5A",
"5 	c #A47C59",
"6 	c #9D7756",
"7 	c #5B5756",
"8 	c #CAC5C1",
"9 	c #CCC7C3",
"0 	c #C4BFBC",
"a 	c #9A938F",
"b 	c #98918D",
"c 	c #9A928D",
"d 	c #A59990",
"e 	c #ADA199",
"f 	c #D5CBC6",
"g 	c #D5CCC6",
"h 	c #CDC4BE",
"i 	c #190C13",
"j 	c #696768",
"k 	c #E9E9E9",
"l 	c #EBEBEB",
"m 	c #E2E2E2",
"n 	c #A8A8A8",
"o 	c #A6A6A6",
"p 	c #B2B2B2",
"q 	c #170A11",
"r 	c #402633",
"s 	c #2F1C26",
"t 	c #5B5558",
"u 	c #BCBCBC",
"v 	c #BEBEBE",
"w 	c #BFBFBF",
"x 	c #C4C4C4",
"y 	c #C0C0C0",
"z 	c #A7A7A7",
"A 	c #ABABAB",
"B 	c #C3C3C3",
"C 	c #B7B6B7",
"D 	c #2D1A23",
"E 	c #3D2431",
"F 	c #100206",
"G 	c #0D0003",
"H 	c #686667",
"I 	c #ECECEC",
"J 	c #B4B4B4",
"K 	c #DCDCDC",
"L 	c #1A0D14",
"M 	c #17060D",
"N 	c #3E2531",
"O 	c #6A6869",
"P 	c #E8E8E8",
"Q 	c #EAEAEA",
"R 	c #241C20",
"S 	c #21141B",
"T 	c #040203",
"U 	c #000000",
"V 	c #676566",
"W 	c #120009",
"X 	c #0F060B",
"Y 	c #23151D",
"Z 	c #23151C",
"` 	c #656263",
" .	c #DEDEDE",
"..	c #D7D7D7",
"+.	c #B0B0B0",
"@.	c #AEAEAE",
"#.	c #B7B7B7",
"$.	c #D6D5D6",
"%.	c #1F1018",
"&.	c #24161D",
"*.	c #3E2532",
"=.	c #1C0F15",
"-.	c #1B0F15",
";.	c #16060F",
">.	c #1D1016",
",.	c #412734",
"'.	c #35202B",
").	c #36202B",
"!.	c #474048",
"~.	c #859098",
"{.	c #859099",
"].	c #909AA4",
"^.	c #B8C4D4",
"/.	c #B9C5D5",
"(.	c #B8C3D2",
"_.	c #B3BAC1",
":.	c #ACB5BD",
"<.	c #8596AC",
"[.	c #8495AB",
"}.	c #8D9DB2",
"|.	c #B6C1D1",
"1.	c #848E97",
"2.	c #331D28",
"3.	c #52565C",
"4.	c #C1D1DD",
"5.	c #C2D2DE",
"6.	c #B4C7D8",
"7.	c #387CB3",
"8.	c #2E79B2",
"9.	c #5D8DBA",
"0.	c #C0D0DD",
"a.	c #4C84B6",
"b.	c #C0D0DC",
"c.	c #080000",
"d.	c #B7C9D9",
"e.	c #6390BB",
"f.	c #608DBA",
"g.	c #7399BF",
"h.	c #B1C5D6",
"i.	c #B3C6D7",
"j.	c #A6BDD2",
"k.	c #367CB3",
"l.	c #3A7DB3",
"m.	c #5F8DBA",
"n.	c #5B8BB9",
"o.	c #2F79B2",
"p.	c #C3D3DF",
"q.	c #B5C8D8",
"r.	c #347BB3",
"s.	c #2777B1",
"t.	c #2877B1",
"u.	c #5E8DBA",
"v.	c #317AB2",
"w.	c #397DB3",
"x.	c #B6C9D9",
"y.	c #B2C5D7",
"z.	c #307AB2",
"A.	c #3A7DB4",
"B.	c #618FBB",
"C.	c #BECFDC",
"D.	c #5B8BBA",
"E.	c #5588B8",
"F.	c #588AB9",
"G.	c #B3C7D8",
"H.	c #ABC0D4",
"I.	c #5D8CBA",
"J.	c #5689B8",
"K.	c #357BB3",
"L.	c #2B78B2",
"M.	c #5C8CBA",
"N.	c #327AB2",
"O.	c #4A83B6",
"P.	c #37212C",
"Q.	c #463D45",
"R.	c #7E8790",
"S.	c #84909C",
"T.	c #9FB6CE",
"U.	c #A0B7CF",
"V.	c #A6BCD2",
"W.	c #C1D1DE",
"X.	c #BDCEDC",
"Y.	c #A0B8D0",
"Z.	c #9DB4CB",
"`.	c #7E878F",
" +	c #7D868E",
".+	c #351F2A",
"++	c #1B0C13",
"@+	c #1A0C13",
"#+	c #565B61",
"$+	c #BBCAD5",
"%+	c #17050D",
"&+	c #1C0D14",
"*+	c #575C62",
"=+	c #BACAD5",
"-+	c #190B12",
";+	c #2A1922",
">+	c #515159",
",+	c #A7B5BF",
"'+	c #AAB7C2",
")+	c #A3B0BA",
"!+	c #28161F",
"~+	c #231B21",
"{+	c #221B20",
"]+	c #261C22",
"^+	c #20141A",
"                                                                                                                                ",
"  . . . . . . . . . . . . . . . . . . . . . . . . . . . . . . . . . . . . . . . . . . . . . . . . . . . . . . . . . . . . . .   ",
"  . . . . . . . . . . . . . . . . . . . . . . . . . . . . . . . . . . . . . . . . . . . . . . . . . . . . . . . . . . . . . .   ",
"  . . . . . . . . . . . . . . . . . . . . . . . . . . . . . . . . . . . . . . . . . . . . . . . . . . . . . . . . . . . . . .   ",
"  . . . . . . . . . . . . . . . . . . . . . . . . . . . . . . . . . . . . . . . . . . . . . . . . . . . . . . . . . . . . . .   ",
"  . . . . . . . . . . . . . . . . . . . . . . . . . . . . . . . . . . . . . . . . . . . . . . . . . . . . . . . . . . . . . .   ",
"  . . . . . . . . . . . . . . . . . . . . . . . . . . . . . . . . . . . . . . . . . . . . . . . . . . . . . . . . . . . . . .   ",
"  . . . . . . . . . . . . . . . . . . . . . . . . . . . . . . . . . . . . . . . . . . . . . . . . . . . . . . . . . . . . . .   ",
"  . . . . . . . . . . . . . . . . . . . . . . . . . . . . . . . . . . . . . . . . . . . . . . . . . . . . . . . . . . . . . .   ",
"  . . . . . . . . . . . . . . . . . . . . . . . . . . . . . . . . . . . . . . . . . . . . . . . . . . . . . . . . . . . . . .   ",
"  . . . . . . . . . . . . . . . . . . . . . . . . . . . . . . . . . . . . . . . . . . . . . . . . . . . . . . . . . . . . . .   ",
"  . . . . . . . . . . . . . . . . . . . . . . . . . . . . . . . . . . . . . . . . . . . . . . . . . . . . . . . . . . . . . .   ",
"  . . . . . . . . . . . . . . . . . . . . . . . . . . . . . . . . . . . . . . . . . . . . . . . . . . . . . . . . . . . . . .   ",
"  . . . . . . . . . . . . . . . . . . . . . . . . . . . . . . . . . . . . . . . . . . . . . . . . . . . . . . . . . . . . . .   ",
"  . . . . . . . . . . . . . . . . . . . . . . . . . . . . . . . . . . . . . . . . . . . . . . . . . . . . . . . . . . . . . .   ",
"  . . . . . . . . . . . . . . . . . . + @ @ @ @ @ @ @ @ @ @ @ @ @ @ @ @ @ @ @ @ @ @ @ @ @ @ + . . . . . . . . . . . . . . . .   ",
"  . . . . . . . . . . . . . . . . . #                                                       $ . . . . . . . . . . . . . . . .   ",
"  . . . . . . . . . . . . . . . . . # %                                                     $ . . . . . . . . . . . . . . . .   ",
"  . . . . . . . . . . . . . . . . . # %     & * * * * * * * = - - - - - - - - - - - ;       $ . . . . . . . . . . . . . . . .   ",
"  . . . . . . . . . . . . . . . . . # %     > , ' ' ' ' ' ' ) ! ~ ~ ~ ~ ~ ~ ~ ~ ~ ~ { ]     $ . . . . . . . . . . . . . . . .   ",
"  . . . . . . . . . . . . . . . . . # %     > ^ / / / / / / ( _ : : : : : : : : : : < ]     $ . . . . . . . . . . . . . . . .   ",
"  . . . . . . . . . . . . . . . . . # %     [ } | | | 1 1 1 2 3 4 4 4 4 4 4 4 5 5 5 6 ]     $ . . . . . . . . . . . . . . . .   ",
"  . . . . . . . . . . . . . . . . . # %     7 8 9 9 0 a b b c d d d d d d d e f g g h i     $ . . . . . . . . . . . . . . . .   ",
"  . . . . . . . . . . . . . . . . . # %     j k l l m n o o o o o o o o o o p l l l m q     $ . . . . . . . . . . . . . . . .   ",
"  . . . . . . . . . . . . . . . . . # %     j k l l m n o o o o o o o o o o p l l l m q     $ . . . . . . . . . . . . . . . .   ",
"  . . . . . . . . . . . . . . . . . r s s s t u v v w x x x y z o o A x x x B v v v C D s s s . . . . . . . . . . . . . . . .   ",
"  . . . . . . . . . . . . . . . . . . . . . E F G G H k I I m n o o J l I I K L G G M . . . . . . . . . . . . . . . . . . . .   ",
"  . . . . . . . . . . . . . . . . . . . . . N $     O P l l m n o o J Q l l K R     S . . . . . . . . . . . . . . . . . . . .   ",
"  . . . . . . . . . . . . . . . . . . . . . N $     O P l l m n o o J Q l l K R     S . . . . . . . . . . . . . . . . . . . .   ",
"  . . . . . . . . . . . . . . . . . . . . . N $     O P l l m n o o J Q l l K R     S . . . . . . . . . . . . . . . . . . . .   ",
"  . . . . . . . . . . . . . . . . . . . . . N $     O P l l m n o o J Q l l K R     S . . . . . . . . . . . . . . . . . . . .   ",
"  . . . . . . . . . . . . . . . . . . . . . E T U U V k I I m n o o J l I I K W U U X . . . . . . . . . . . . . . . . . . . .   ",
"  . . . . . . . . . . . . . . . . . # Y Z Z ` K  . ...p +.+.@.o o o n +.+.+.#. . . .$.%.Z Z &.. . . . . . . . . . . . . . . .   ",
"  . . . . . . . . . . . . . . . . . # %     j k l l m n o o o o o o o o o o p l l l m q     $ . . . . . . . . . . . . . . . .   ",
"  . . . . . . . . . . . . . . . . . *.=.-.-.j k l l m n o o o o o o o o o o p l l l m ;.-.-.>.. . . . . . . . . . . . . . . .   ",
"  . . . . . . . . . . . . . ,.'.).).!.~.{.{.].^././.(._._._.:.<.[.[.[.[.[.[.}./././.|.{.{.{.1.2.).).'.. . . . . . . . . . . .   ",
"  . . . . . . . . . . . . . @       3.4.5.5.6.7.8.8.9.0.5.5.6.7.8.8.8.8.8.8.8.8.8.8.a.5.5.5.b.c.      . . . . . . . . . . . .   ",
"  . . . . . . . . . . . . . @       3.4.5.5.6.7.8.8.9.0.5.5.6.7.8.8.8.8.8.8.8.8.8.8.a.5.5.5.b.c.      . . . . . . . . . . . .   ",
"  . . . . . . . . . . . . . @       3.4.5.5.d.e.f.f.g.h.i.i.j.k.8.8.l.m.f.f.n.o.8.8.a.5.5.5.b.c.      . . . . . . . . . . . .   ",
"  . . . . . . . . . . . . . @       3.4.5.5.5.p.p.p.q.r.s.s.t.8.8.8.u.5.p.p.d.v.8.8.a.5.5.5.b.c.      . . . . . . . . . . . .   ",
"  . . . . . . . . . . . . . @       3.4.5.5.5.5.5.5.6.w.8.8.8.8.8.8.9.4.5.5.x.v.8.8.a.5.5.5.b.c.      . . . . . . . . . . . .   ",
"  . . . . . . . . . . . . . @       3.4.5.5.5.0.0.0.y.w.8.8.z.A.A.A.B.C.0.0.6.v.8.8.a.5.5.5.b.c.      . . . . . . . . . . . .   ",
"  . . . . . . . . . . . . . @       3.4.5.5.x.m.D.D.E.z.8.8.F.G.q.q.H.I.D.D.J.o.8.8.a.5.5.5.b.c.      . . . . . . . . . . . .   ",
"  . . . . . . . . . . . . . @       3.4.5.5.6.7.8.8.8.8.8.8.I.0.5.5.6.K.8.8.8.8.8.8.a.5.5.5.b.c.      . . . . . . . . . . . .   ",
"  . . . . . . . . . . . . . @       3.5.p.p.q.K.L.L.L.L.L.L.M.0.5.5.6.N.L.L.L.L.L.L.O.p.p.p.4.c.      . . . . . . . . . . . .   ",
"  . . . . . . . . . . . . . ,.P.P.P.Q.R.R.R.S.T.U.U.U.U.U.U.V.W.5.5.X.Y.U.U.U.U.U.U.Z.`.R.R. +.+P.P.P.. . . . . . . . . . . .   ",
"  . . . . . . . . . . . . . . . . . *.++@+@+#+b.5.5.5.5.5.5.5.5.5.5.5.5.5.5.5.5.5.5.$+%+@+@+&+. . . . . . . . . . . . . . . .   ",
"  . . . . . . . . . . . . . . . . . # %     *+b.5.5.5.5.5.5.5.5.5.5.5.5.5.5.5.5.5.5.=+-+    $ . . . . . . . . . . . . . . . .   ",
"  . . . . . . . . . . . . . . . . . + ;+;+;+>+,+'+'+'+'+'+'+'+'+'+'+'+'+'+'+'+'+'+'+)+!+;+;+;+. . . . . . . . . . . . . . . .   ",
"  . . . . . . . . . . . . . . . . . . . . . # ~+{+{+{+{+{+{+{+{+{+{+{+{+{+{+{+{+{+{+]+. . . . . . . . . . . . . . . . . . . .   ",
"  . . . . . . . . . . . . . . . . . . . . . N $                                     S . . . . . . . . . . . . . . . . . . . .   ",
"  . . . . . . . . . . . . . . . . . . . . . N %                                     ^+. . . . . . . . . . . . . . . . . . . .   ",
"  . . . . . . . . . . . . . . . . . . . . . . . . . . . . . . . . . . . . . . . . . . . . . . . . . . . . . . . . . . . . . .   ",
"  . . . . . . . . . . . . . . . . . . . . . . . . . . . . . . . . . . . . . . . . . . . . . . . . . . . . . . . . . . . . . .   ",
"  . . . . . . . . . . . . . . . . . . . . . . . . . . . . . . . . . . . . . . . . . . . . . . . . . . . . . . . . . . . . . .   ",
"  . . . . . . . . . . . . . . . . . . . . . . . . . . . . . . . . . . . . . . . . . . . . . . . . . . . . . . . . . . . . . .   ",
"  . . . . . . . . . . . . . . . . . . . . . . . . . . . . . . . . . . . . . . . . . . . . . . . . . . . . . . . . . . . . . .   ",
"  . . . . . . . . . . . . . . . . . . . . . . . . . . . . . . . . . . . . . . . . . . . . . . . . . . . . . . . . . . . . . .   ",
"  . . . . . . . . . . . . . . . . . . . . . . . . . . . . . . . . . . . . . . . . . . . . . . . . . . . . . . . . . . . . . .   ",
"  . . . . . . . . . . . . . . . . . . . . . . . . . . . . . . . . . . . . . . . . . . . . . . . . . . . . . . . . . . . . . .   ",
"  . . . . . . . . . . . . . . . . . . . . . . . . . . . . . . . . . . . . . . . . . . . . . . . . . . . . . . . . . . . . . .   ",
"  . . . . . . . . . . . . . . . . . . . . . . . . . . . . . . . . . . . . . . . . . . . . . . . . . . . . . . . . . . . . . .   ",
"  . . . . . . . . . . . . . . . . . . . . . . . . . . . . . . . . . . . . . . . . . . . . . . . . . . . . . . . . . . . . . .   ",
"                                                                                                                                "};
