/* XPM */
static char * enemyr_xpm[] = {
"64 64 175 2",
"  	c #1C1117",
". 	c #422835",
"+ 	c #3B2430",
"@ 	c #24151D",
"# 	c #24161D",
"$ 	c #26171E",
"% 	c #3E2632",
"& 	c #3A232F",
"* 	c #1E1219",
"= 	c #3D2531",
"- 	c #3E2531",
"; 	c #1D121C",
"> 	c #1E1321",
", 	c #1C121A",
"' 	c #1C1116",
") 	c #231A35",
"! 	c #2B244D",
"~ 	c #2B234D",
"{ 	c #21172D",
"] 	c #1C1016",
"^ 	c #231B37",
"/ 	c #2C2550",
"( 	c #21182F",
"_ 	c #1C1115",
": 	c #28203D",
"< 	c #352E59",
"[ 	c #322B56",
"} 	c #1B1014",
"| 	c #312948",
"1 	c #453D6C",
"2 	c #453D6B",
"3 	c #3E3663",
"4 	c #322A48",
"5 	c #463E6B",
"6 	c #3F375F",
"7 	c #383054",
"8 	c #383154",
"9 	c #3C345A",
"0 	c #332B4B",
"a 	c #1A0F11",
"b 	c #1B1015",
"c 	c #292037",
"d 	c #453D6A",
"e 	c #342C4C",
"f 	c #292138",
"g 	c #CB1B32",
"h 	c #24191D",
"i 	c #281C20",
"j 	c #1F1419",
"k 	c #1D1218",
"l 	c #271B1F",
"m 	c #261B1F",
"n 	c #1D1217",
"o 	c #261A1F",
"p 	c #2A1E22",
"q 	c #1F141A",
"r 	c #291D21",
"s 	c #291D22",
"t 	c #20151A",
"u 	c #1E1318",
"v 	c #281D21",
"w 	c #281C21",
"x 	c #2A2138",
"y 	c #382F4D",
"z 	c #281C1F",
"A 	c #22171B",
"B 	c #201519",
"C 	c #30273B",
"D 	c #382F4E",
"E 	c #2A1E20",
"F 	c #21161B",
"G 	c #1E1319",
"H 	c #291E22",
"I 	c #32283C",
"J 	c #392F4E",
"K 	c #3A3152",
"L 	c #2E2332",
"M 	c #2F2433",
"N 	c #2E2433",
"O 	c #241A23",
"P 	c #21161D",
"Q 	c #2D2331",
"R 	c #352B44",
"S 	c #453C6A",
"T 	c #443C68",
"U 	c #332A43",
"V 	c #291D20",
"W 	c #423A66",
"X 	c #443C69",
"Y 	c #352B45",
"Z 	c #2A1E21",
"` 	c #2E2541",
" .	c #3F3760",
"..	c #403863",
"+.	c #413966",
"@.	c #403966",
"#.	c #372E4D",
"$.	c #32273C",
"%.	c #31273B",
"&.	c #241A24",
"*.	c #20141A",
"=.	c #2F2639",
"-.	c #3F3864",
";.	c #3A335F",
">.	c #1C1119",
",.	c #1D121B",
"'.	c #1D131B",
").	c #1D121A",
"!.	c #261E3F",
"~.	c #2D2651",
"{.	c #31273A",
"].	c #2C212A",
"^.	c #423A64",
"/.	c #423A68",
"(.	c #2E2752",
"_.	c #1C1015",
":.	c #261E3D",
"<.	c #3E3764",
"[.	c #2D212B",
"}.	c #433B65",
"|.	c #433B68",
"1.	c #2D1B24",
"2.	c #27171F",
"3.	c #39315D",
"4.	c #3D3662",
"5.	c #352C46",
"6.	c #352C48",
"7.	c #3D3560",
"8.	c #3C3461",
"9.	c #36212B",
"0.	c #443C6A",
"a.	c #302954",
"b.	c #36202B",
"c.	c #3E2532",
"d.	c #311D27",
"e.	c #341F2A",
"f.	c #35202B",
"g.	c #20131A",
"h.	c #21182E",
"i.	c #2F1C26",
"j.	c #291821",
"k.	c #352E5A",
"l.	c #38305C",
"m.	c #38315C",
"n.	c #3D3562",
"o.	c #3B335F",
"p.	c #282145",
"q.	c #271F40",
"r.	c #1E1322",
"s.	c #433B69",
"t.	c #2C254F",
"u.	c #1F1527",
"v.	c #2C254E",
"w.	c #1C1118",
"x.	c #1C1218",
"y.	c #261E3E",
"z.	c #2C2551",
"A.	c #2D2551",
"B.	c #2D2550",
"C.	c #1F1627",
"D.	c #2D243F",
"E.	c #3D355D",
"F.	c #3E3761",
"G.	c #403865",
"H.	c #3E3763",
"I.	c #241C2F",
"J.	c #463E6C",
"K.	c #261E32",
"L.	c #312947",
"M.	c #433B67",
"N.	c #261D31",
"O.	c #211724",
"P.	c #261D32",
"Q.	c #1E131D",
"R.	c #3B232F",
"                                                                                                                                ",
"  . . . . . . + @ # # # # # # # # # # # # # # # # # # # # # # # # # # # # # # # # # # # # # # # # # # # # $ % . . . . . . . .   ",
"  . . . . . . &                                                                                           * = . . . . . . . .   ",
"  . . . . . . &                                                                                           * - . . . . . . . .   ",
"  . . . . . . &       ; > > > > > > > > > > > > > > > > > > > > > > > > > > > > > > > > > > > > > > ,     * - . . . . . . . .   ",
"  . . . . . . &     ' ) ! ! ! ! ! ! ! ! ! ! ! ! ! ! ! ! ! ! ! ! ! ! ! ! ! ! ! ! ! ! ! ! ! ! ! ! ! ~ { '   * - . . . . . . . .   ",
"  . . . . . . &     ] ^ / / / / / / / / / / / / / / / / / / / / / / / / / / / / / / / / / / / / / / ( '   * - . . . . . . . .   ",
"  . . . . . . &     ] ^ / / / / / / / / / / / / / / / / / / / / / / / / / / / / / / / / / / / / / / ( '   * - . . . . . . . .   ",
"  . . . . . . &     ] ^ / / / / / / / / / / / / / / / / / / / / / / / / / / / / / / / / / / / / / / ( '   * - . . . . . . . .   ",
"  . . . . . . &     ] ^ / / / / / / / / / / / / / / / / / / / / / / / / / / / / / / / / / / / / / / ( '   * - . . . . . . . .   ",
"  . . . . . . &     ] ^ / / / / / / / / / / / / / / / / / / / / / / / / / / / / / / / / / / / / / / ( '   * - . . . . . . . .   ",
"  . . . . . . &     ' ^ / / / / / / / / / / / / / / / / / / / / / / / / / / / / / / / / / / / / / / ( '   * - . . . . . . . .   ",
"  . . . . . . &     _ : < < < < < < < < < < < < < < < < < < < < < < < < < < [ / / / / / / / / / / / ( '   * - . . . . . . . .   ",
"  . . . . . . &     } | 1 2 2 2 2 2 2 2 2 2 2 2 2 2 2 2 2 2 2 2 2 2 2 2 2 2 3 / / / / / / / / / / / ( '   * - . . . . . . . .   ",
"  . . . . . . &     } 4 5 2 2 2 2 2 2 2 2 2 2 2 2 2 2 2 2 2 2 2 2 2 2 2 2 2 3 / / / / / / / / / / / ( '   * - . . . . . . . .   ",
"  . . . . . . &     } 4 5 2 2 2 2 2 2 2 2 2 2 2 2 2 2 2 2 2 2 2 2 2 2 2 2 2 3 / / / / / / / / / / / ( '   * - . . . . . . . .   ",
"  . . . . . . &     } 4 5 2 2 6 7 8 8 8 8 8 8 8 8 8 8 8 8 8 8 8 8 8 9 2 2 2 3 / / / / / / / / / / / ( '   * - . . . . . . . .   ",
"  . . . . . . &     } 4 5 2 5 0 a } b b b b b b b b b b b b b b } } c d 2 2 3 / / / / / / / / / / / ( '   * - . . . . . . . .   ",
"  . . . . . . &     } 4 5 2 5 e }                                 ' f d 2 2 3 / / / / / / / / / / / ( '   * - . . . . . . . .   ",
"  . . . . . . &     } 4 5 2 5 e }                                   f d 2 2 3 / / / / / / / / / / / ( '   * - . . . . . . . .   ",
"  . . . . . . &     } 4 5 2 5 e }     g g g             g g g       f d 2 2 3 / / / / / / / / / / / ( '   * - . . . . . . . .   ",
"  . . . . . . &     } 4 5 2 5 e }     g g g             g g g       f d 2 2 3 / / / / / / / / / / / ( '   * - . . . . . . . .   ",
"  . . . . . . &     } 4 5 2 5 e }     g g g             g g g       f d 2 2 3 / / / / / / / / / / / ( '   * - . . . . . . . .   ",
"  . . . . . . &     } 4 5 2 5 e }                                   f d 2 2 3 / / / / / / / / / / / ( '   * - . . . . . . . .   ",
"  . . . . . . &     } 4 5 2 5 e }                                   f d 2 2 3 / / / / / / / / / / / ( '   * - . . . . . . . .   ",
"  . . . . . . &     } 4 5 2 5 e }                                   f d 2 2 3 / / / / / / / / / / / ( '   * - . . . . . . . .   ",
"  . . . . . . &     } 4 5 2 5 e }                                   f d 2 2 3 / / / / / / / / / / / ( '   * - . . . . . . . .   ",
"  . . . . . . &     } 4 5 2 5 e }                                   f d 2 2 3 / / / / / / / / / / / ( '   * - . . . . . . . .   ",
"  . . . . . . &     } 4 5 2 5 e }     h i i i j     k l i i m n     f d 2 2 3 / / / / / / / / / / / ( '   * - . . . . . . . .   ",
"  . . . . . . &     } 4 5 2 5 e }     o p p p q     k r p p r k     f d 2 2 3 / / / / / / / / / / / ( '   * - . . . . . . . .   ",
"  . . . . . . &     } 4 5 2 5 e }     o p p p q     k r p p r k     f d 2 2 3 / / / / / / / / / / / ( '   * - . . . . . . . .   ",
"  . . . . . . &     } 4 5 2 5 e _ k n o p s r t k k u v s s w u k n x d 2 2 3 / / / / / / / / / / / ( '   * - . . . . . . . .   ",
"  . . . . . . &     } 4 5 2 2 y z r r A u u u l r r v B u u t v r r C d 2 2 3 / / / / / / / / / / / ( '   * - . . . . . . . .   ",
"  . . . . . . &     } 4 5 2 2 D E p p F       i p p s u     G H p p I d 2 2 3 / / / / / / / / / / / ( '   * - . . . . . . . .   ",
"  . . . . . . &     } 4 5 2 2 J E p p F       i p p s u     G p p p I d 2 2 3 / / / / / / / / / / / ( '   * - . . . . . . . .   ",
"  . . . . . . &     } 4 5 2 2 K L M N O u G j l r r w t G G P Q M M R d 2 2 3 / / / / / / / / / / / ( '   * - . . . . . . . .   ",
"  . . . . . . &     } 4 5 2 2 S T T T U V H H t k k u v H p Q W T T X 2 2 2 3 / / / / / / / / / / / ( '   * - . . . . . . . .   ",
"  . . . . . . &     } 4 5 2 2 2 2 2 2 Y Z p p q     k r p p M T 2 2 2 2 2 2 3 / / / / / / / / / / / ( '   * - . . . . . . . .   ",
"  . . . . . . &     } 4 5 2 2 2 2 2 2 Y Z p p q     k r p p M T 2 2 2 2 2 2 3 / / / / / / / / / / / ( '   * - . . . . . . . .   ",
"  . . . . . . &     b `  .6 6 ..+.+.@.#.$.I %.&.*.*.P =.$.I U -.+.+.+.+.+.+.;./ / / / / / / / / / / ( '   * - . . . . . . . .   ",
"  . . . . . . &       >.,.'.).!.~.~.~.3 d d X {.p p ].^.d d /.(.~.~.~.~.~.~.~./ / / / / / / / / / / ( '   * - . . . . . . . .   ",
"  . . . . . . &             _.:./ / / <.2 2 d %.p p [.}.2 2 |.(./ / / / / / / / / / / / / / / / / / ( '   * - . . . . . . . .   ",
"  . . . . . . &             _.:./ / / <.2 2 d %.Z Z ].}.2 2 |.(./ / / / / / / / / / / / / / / / / / ( '   * - . . . . . . . .   ",
"  . . . . . . = 1.1.1.2.    _.:./ / / 3.3 3 4.#.5.5.6.7.3 3 8.~./ / / / / / / / / / / / / / / / / / ( '   * - . . . . . . . .   ",
"  . . . . . . . . . . 9.    _.:./ / / / / / ~.+.2 2 0.a./ / / / / / / / / / / / / / / / / / / / / / ( '   * - . . . . . . . .   ",
"  . . . . . . . . . . b.    _.:./ / / / / / ~.+.2 2 0.a./ / / / / / / / / / / / / / / / / / / / / / ( '   * - . . . . . . . .   ",
"  . . . . . . . . . . b.    _.:./ / / / / / ~.+.2 2 0.a./ / / / / / / / / / / / / / / / / / / / / / ( '   * c.. . . . . . . .   ",
"  . . . . . . . . . . b.    _.:./ / / / / / ~.+.2 2 0.a./ / / / / / / / / / / / / / / / / / / / / / ( '   k d.e.e.f.. . . . .   ",
"  . . . . . . . . . . b.    _.:./ / / / / / ~.+.2 2 0.a./ / / / / / / / / / / / / / / / / / / / / / ( '           g.. . . . .   ",
"  . . . . . . . . . . b.    _.:./ / / / / / ~.+.2 2 0.a./ / / / / / / / / / / / / / / / / / / / / / ( '           *.. . . . .   ",
"  . . . . . . . . . . 9.    _.:./ / / / / / ~.+.2 2 0.a./ / / / / / / / / / / / / / / / / / / / / / h._.] ]       *.. . . . .   ",
"  . . . . . . = i.i.i.j.    _.:./ / / / / / / k.l.m.l.8.n.n.o.~./ / / / / / / / / / / / / / / / / / p.q.q.!.r.    *.. . . . .   ",
"  . . . . . . &             _.:./ / / / / / / / / / (.s.2 2 |.(./ / / / / / / / / / / / / / / / / / / / / t.u.    *.. . . . .   ",
"  . . . . . . &             _.:./ / / / / / / / / / (.s.2 2 |.(./ / / / / / / / / / / / / / / / / / / / / v.u.    *.. . . . .   ",
"  . . . . . . &       w.w.x.  y.z.~./ / / / / / / A.(.s.2 2 |.(.B./ / / / / / / / / / / / / / / / / / / / t.C.    *.. . . . .   ",
"  . . . . . . &     b D.E.E.E.F.G.G.G.G.G.G.G.G.G.G.G.0.2 2 0.G.G.G.G.G.G.G.G.G.G.G.G.G.G.G.G.G.G.G.G.G.G.H.I.    *.. . . . .   ",
"  . . . . . . &     } 4 J.2 2 2 2 2 2 2 2 2 2 2 2 2 2 2 2 2 2 2 2 2 2 2 2 2 2 2 2 2 2 2 2 2 2 2 2 2 2 2 2 X K.    *.. . . . .   ",
"  . . . . . . &     } 4 5 2 2 2 2 2 2 2 2 2 2 2 2 2 2 2 2 2 2 2 2 2 2 2 2 2 2 2 2 2 2 2 2 2 2 2 2 2 2 2 2 X K.    *.. . . . .   ",
"  . . . . . . &     } L.X X X X X X X X X X X X X X X X X X X X X X X X X X X X X X X X X X X X X X X X X M.N.    *.. . . . .   ",
"  . . . . . . &       O.P.K.K.K.K.K.K.K.K.K.K.K.K.K.K.K.K.K.K.K.K.K.K.K.K.K.K.K.K.K.K.K.K.K.K.K.K.K.K.K.K.N.Q.    *.. . . . .   ",
"  . . . . . . &                                                                                                   *.. . . . .   ",
"  . . . . . . &                                                                                                   *.. . . . .   ",
"  . . . . . . R.g.*.*.*.*.*.*.*.*.*.*.*.*.*.*.*.*.*.*.*.*.*.*.*.*.*.*.*.*.*.*.*.*.*.*.*.*.*.*.*.*.*.*.*.*.*.*.*.*.# . . . . .   ",
"                                                                                                                                "};
