/* XPM */
static char * enemy_xpm[] = {
"64 64 175 2",
"  	c #1C1117",
". 	c #422835",
"+ 	c #3E2632",
"@ 	c #26171E",
"# 	c #24161D",
"$ 	c #24151D",
"% 	c #3B2430",
"& 	c #3D2531",
"* 	c #1E1219",
"= 	c #3A232F",
"- 	c #3E2531",
"; 	c #1C121A",
"> 	c #1E1321",
", 	c #1D121C",
"' 	c #1C1116",
") 	c #21172D",
"! 	c #2B234D",
"~ 	c #2B244D",
"{ 	c #231A35",
"] 	c #21182F",
"^ 	c #2C2550",
"/ 	c #231B37",
"( 	c #1C1016",
"_ 	c #322B56",
": 	c #352E59",
"< 	c #28203D",
"[ 	c #1C1115",
"} 	c #3E3663",
"| 	c #453D6B",
"1 	c #453D6C",
"2 	c #312948",
"3 	c #1B1014",
"4 	c #463E6B",
"5 	c #322A48",
"6 	c #3C345A",
"7 	c #383154",
"8 	c #383054",
"9 	c #3F375F",
"0 	c #453D6A",
"a 	c #292037",
"b 	c #1B1015",
"c 	c #1A0F11",
"d 	c #332B4B",
"e 	c #292138",
"f 	c #342C4C",
"g 	c #CB1B32",
"h 	c #1D1217",
"i 	c #261B1F",
"j 	c #281C20",
"k 	c #271B1F",
"l 	c #1D1218",
"m 	c #1F1419",
"n 	c #24191D",
"o 	c #291D21",
"p 	c #2A1E22",
"q 	c #1F141A",
"r 	c #261A1F",
"s 	c #2A2138",
"t 	c #1E1318",
"u 	c #281C21",
"v 	c #291D22",
"w 	c #281D21",
"x 	c #20151A",
"y 	c #30273B",
"z 	c #201519",
"A 	c #22171B",
"B 	c #281C1F",
"C 	c #382F4D",
"D 	c #32283C",
"E 	c #291E22",
"F 	c #1E1319",
"G 	c #21161B",
"H 	c #2A1E20",
"I 	c #382F4E",
"J 	c #392F4E",
"K 	c #352B44",
"L 	c #2F2433",
"M 	c #2D2331",
"N 	c #21161D",
"O 	c #241A23",
"P 	c #2E2433",
"Q 	c #2E2332",
"R 	c #3A3152",
"S 	c #443C69",
"T 	c #443C68",
"U 	c #423A66",
"V 	c #291D20",
"W 	c #332A43",
"X 	c #453C6A",
"Y 	c #2A1E21",
"Z 	c #352B45",
"` 	c #3A335F",
" .	c #413966",
"..	c #3F3864",
"+.	c #32273C",
"@.	c #2F2639",
"#.	c #20141A",
"$.	c #241A24",
"%.	c #31273B",
"&.	c #372E4D",
"*.	c #403966",
"=.	c #403863",
"-.	c #3F3760",
";.	c #2E2541",
">.	c #2D2651",
",.	c #2E2752",
"'.	c #423A68",
").	c #423A64",
"!.	c #2C212A",
"~.	c #31273A",
"{.	c #261E3F",
"].	c #1D121A",
"^.	c #1D131B",
"/.	c #1D121B",
"(.	c #1C1119",
"_.	c #433B68",
":.	c #433B65",
"<.	c #2D212B",
"[.	c #3E3764",
"}.	c #261E3D",
"|.	c #1C1015",
"1.	c #3C3461",
"2.	c #3D3560",
"3.	c #352C48",
"4.	c #352C46",
"5.	c #3D3662",
"6.	c #39315D",
"7.	c #27171F",
"8.	c #2D1B24",
"9.	c #302954",
"0.	c #443C6A",
"a.	c #36212B",
"b.	c #36202B",
"c.	c #3E2532",
"d.	c #35202B",
"e.	c #341F2A",
"f.	c #311D27",
"g.	c #20131A",
"h.	c #21182E",
"i.	c #1E1322",
"j.	c #271F40",
"k.	c #282145",
"l.	c #3B335F",
"m.	c #3D3562",
"n.	c #38305C",
"o.	c #38315C",
"p.	c #352E5A",
"q.	c #291821",
"r.	c #2F1C26",
"s.	c #1F1527",
"t.	c #2C254F",
"u.	c #433B69",
"v.	c #2C254E",
"w.	c #1F1627",
"x.	c #2D2550",
"y.	c #2D2551",
"z.	c #2C2551",
"A.	c #261E3E",
"B.	c #1C1218",
"C.	c #1C1118",
"D.	c #241C2F",
"E.	c #3E3763",
"F.	c #403865",
"G.	c #3E3761",
"H.	c #3D355D",
"I.	c #2D243F",
"J.	c #261E32",
"K.	c #463E6C",
"L.	c #261D31",
"M.	c #433B67",
"N.	c #312947",
"O.	c #1E131D",
"P.	c #261D32",
"Q.	c #211724",
"R.	c #3B232F",
"                                                                                                                                ",
"  . . . . . . . . + @ # # # # # # # # # # # # # # # # # # # # # # # # # # # # # # # # # # # # # # # # # # # # $ % . . . . . .   ",
"  . . . . . . . . & *                                                                                           = . . . . . .   ",
"  . . . . . . . . - *                                                                                           = . . . . . .   ",
"  . . . . . . . . - *     ; > > > > > > > > > > > > > > > > > > > > > > > > > > > > > > > > > > > > > > ,       = . . . . . .   ",
"  . . . . . . . . - *   ' ) ! ~ ~ ~ ~ ~ ~ ~ ~ ~ ~ ~ ~ ~ ~ ~ ~ ~ ~ ~ ~ ~ ~ ~ ~ ~ ~ ~ ~ ~ ~ ~ ~ ~ ~ ~ ~ ~ { '     = . . . . . .   ",
"  . . . . . . . . - *   ' ] ^ ^ ^ ^ ^ ^ ^ ^ ^ ^ ^ ^ ^ ^ ^ ^ ^ ^ ^ ^ ^ ^ ^ ^ ^ ^ ^ ^ ^ ^ ^ ^ ^ ^ ^ ^ ^ ^ / (     = . . . . . .   ",
"  . . . . . . . . - *   ' ] ^ ^ ^ ^ ^ ^ ^ ^ ^ ^ ^ ^ ^ ^ ^ ^ ^ ^ ^ ^ ^ ^ ^ ^ ^ ^ ^ ^ ^ ^ ^ ^ ^ ^ ^ ^ ^ ^ / (     = . . . . . .   ",
"  . . . . . . . . - *   ' ] ^ ^ ^ ^ ^ ^ ^ ^ ^ ^ ^ ^ ^ ^ ^ ^ ^ ^ ^ ^ ^ ^ ^ ^ ^ ^ ^ ^ ^ ^ ^ ^ ^ ^ ^ ^ ^ ^ / (     = . . . . . .   ",
"  . . . . . . . . - *   ' ] ^ ^ ^ ^ ^ ^ ^ ^ ^ ^ ^ ^ ^ ^ ^ ^ ^ ^ ^ ^ ^ ^ ^ ^ ^ ^ ^ ^ ^ ^ ^ ^ ^ ^ ^ ^ ^ ^ / (     = . . . . . .   ",
"  . . . . . . . . - *   ' ] ^ ^ ^ ^ ^ ^ ^ ^ ^ ^ ^ ^ ^ ^ ^ ^ ^ ^ ^ ^ ^ ^ ^ ^ ^ ^ ^ ^ ^ ^ ^ ^ ^ ^ ^ ^ ^ ^ / (     = . . . . . .   ",
"  . . . . . . . . - *   ' ] ^ ^ ^ ^ ^ ^ ^ ^ ^ ^ ^ ^ ^ ^ ^ ^ ^ ^ ^ ^ ^ ^ ^ ^ ^ ^ ^ ^ ^ ^ ^ ^ ^ ^ ^ ^ ^ ^ / '     = . . . . . .   ",
"  . . . . . . . . - *   ' ] ^ ^ ^ ^ ^ ^ ^ ^ ^ ^ ^ _ : : : : : : : : : : : : : : : : : : : : : : : : : : < [     = . . . . . .   ",
"  . . . . . . . . - *   ' ] ^ ^ ^ ^ ^ ^ ^ ^ ^ ^ ^ } | | | | | | | | | | | | | | | | | | | | | | | | | 1 2 3     = . . . . . .   ",
"  . . . . . . . . - *   ' ] ^ ^ ^ ^ ^ ^ ^ ^ ^ ^ ^ } | | | | | | | | | | | | | | | | | | | | | | | | | 4 5 3     = . . . . . .   ",
"  . . . . . . . . - *   ' ] ^ ^ ^ ^ ^ ^ ^ ^ ^ ^ ^ } | | | | | | | | | | | | | | | | | | | | | | | | | 4 5 3     = . . . . . .   ",
"  . . . . . . . . - *   ' ] ^ ^ ^ ^ ^ ^ ^ ^ ^ ^ ^ } | | | 6 7 7 7 7 7 7 7 7 7 7 7 7 7 7 7 7 7 8 9 | | 4 5 3     = . . . . . .   ",
"  . . . . . . . . - *   ' ] ^ ^ ^ ^ ^ ^ ^ ^ ^ ^ ^ } | | 0 a 3 3 b b b b b b b b b b b b b b 3 c d 4 | 4 5 3     = . . . . . .   ",
"  . . . . . . . . - *   ' ] ^ ^ ^ ^ ^ ^ ^ ^ ^ ^ ^ } | | 0 e '                                 3 f 4 | 4 5 3     = . . . . . .   ",
"  . . . . . . . . - *   ' ] ^ ^ ^ ^ ^ ^ ^ ^ ^ ^ ^ } | | 0 e                                   3 f 4 | 4 5 3     = . . . . . .   ",
"  . . . . . . . . - *   ' ] ^ ^ ^ ^ ^ ^ ^ ^ ^ ^ ^ } | | 0 e       g g g             g g g     3 f 4 | 4 5 3     = . . . . . .   ",
"  . . . . . . . . - *   ' ] ^ ^ ^ ^ ^ ^ ^ ^ ^ ^ ^ } | | 0 e       g g g             g g g     3 f 4 | 4 5 3     = . . . . . .   ",
"  . . . . . . . . - *   ' ] ^ ^ ^ ^ ^ ^ ^ ^ ^ ^ ^ } | | 0 e       g g g             g g g     3 f 4 | 4 5 3     = . . . . . .   ",
"  . . . . . . . . - *   ' ] ^ ^ ^ ^ ^ ^ ^ ^ ^ ^ ^ } | | 0 e                                   3 f 4 | 4 5 3     = . . . . . .   ",
"  . . . . . . . . - *   ' ] ^ ^ ^ ^ ^ ^ ^ ^ ^ ^ ^ } | | 0 e                                   3 f 4 | 4 5 3     = . . . . . .   ",
"  . . . . . . . . - *   ' ] ^ ^ ^ ^ ^ ^ ^ ^ ^ ^ ^ } | | 0 e                                   3 f 4 | 4 5 3     = . . . . . .   ",
"  . . . . . . . . - *   ' ] ^ ^ ^ ^ ^ ^ ^ ^ ^ ^ ^ } | | 0 e                                   3 f 4 | 4 5 3     = . . . . . .   ",
"  . . . . . . . . - *   ' ] ^ ^ ^ ^ ^ ^ ^ ^ ^ ^ ^ } | | 0 e                                   3 f 4 | 4 5 3     = . . . . . .   ",
"  . . . . . . . . - *   ' ] ^ ^ ^ ^ ^ ^ ^ ^ ^ ^ ^ } | | 0 e     h i j j k l     m j j j n     3 f 4 | 4 5 3     = . . . . . .   ",
"  . . . . . . . . - *   ' ] ^ ^ ^ ^ ^ ^ ^ ^ ^ ^ ^ } | | 0 e     l o p p o l     q p p p r     3 f 4 | 4 5 3     = . . . . . .   ",
"  . . . . . . . . - *   ' ] ^ ^ ^ ^ ^ ^ ^ ^ ^ ^ ^ } | | 0 e     l o p p o l     q p p p r     3 f 4 | 4 5 3     = . . . . . .   ",
"  . . . . . . . . - *   ' ] ^ ^ ^ ^ ^ ^ ^ ^ ^ ^ ^ } | | 0 s h l t u v v w t l l x o v p r h l [ f 4 | 4 5 3     = . . . . . .   ",
"  . . . . . . . . - *   ' ] ^ ^ ^ ^ ^ ^ ^ ^ ^ ^ ^ } | | 0 y o o w x t t z w o o k t t t A o o B C | | 4 5 3     = . . . . . .   ",
"  . . . . . . . . - *   ' ] ^ ^ ^ ^ ^ ^ ^ ^ ^ ^ ^ } | | 0 D p p E F     t v p p j       G p p H I | | 4 5 3     = . . . . . .   ",
"  . . . . . . . . - *   ' ] ^ ^ ^ ^ ^ ^ ^ ^ ^ ^ ^ } | | 0 D p p p F     t v p p j       G p p H J | | 4 5 3     = . . . . . .   ",
"  . . . . . . . . - *   ' ] ^ ^ ^ ^ ^ ^ ^ ^ ^ ^ ^ } | | 0 K L L M N F F x u o o k m F t O P L Q R | | 4 5 3     = . . . . . .   ",
"  . . . . . . . . - *   ' ] ^ ^ ^ ^ ^ ^ ^ ^ ^ ^ ^ } | | | S T T U M p E w t l l x E E V W T T T X | | 4 5 3     = . . . . . .   ",
"  . . . . . . . . - *   ' ] ^ ^ ^ ^ ^ ^ ^ ^ ^ ^ ^ } | | | | | | T L p p o l     q p p Y Z | | | | | | 4 5 3     = . . . . . .   ",
"  . . . . . . . . - *   ' ] ^ ^ ^ ^ ^ ^ ^ ^ ^ ^ ^ } | | | | | | T L p p o l     q p p Y Z | | | | | | 4 5 3     = . . . . . .   ",
"  . . . . . . . . - *   ' ] ^ ^ ^ ^ ^ ^ ^ ^ ^ ^ ^ `  . . . . . ...W D +.@.N #.#.$.%.D +.&.*. . .=.9 9 -.;.b     = . . . . . .   ",
"  . . . . . . . . - *   ' ] ^ ^ ^ ^ ^ ^ ^ ^ ^ ^ ^ >.>.>.>.>.>.>.,.'.0 0 ).!.p p ~.S 0 0 } >.>.>.{.].^./.(.      = . . . . . .   ",
"  . . . . . . . . - *   ' ] ^ ^ ^ ^ ^ ^ ^ ^ ^ ^ ^ ^ ^ ^ ^ ^ ^ ^ ,._.| | :.<.p p %.0 | | [.^ ^ ^ }.|.            = . . . . . .   ",
"  . . . . . . . . - *   ' ] ^ ^ ^ ^ ^ ^ ^ ^ ^ ^ ^ ^ ^ ^ ^ ^ ^ ^ ,._.| | :.!.Y Y %.0 | | [.^ ^ ^ }.|.            = . . . . . .   ",
"  . . . . . . . . - *   ' ] ^ ^ ^ ^ ^ ^ ^ ^ ^ ^ ^ ^ ^ ^ ^ ^ ^ ^ >.1.} } 2.3.4.4.&.5.} } 6.^ ^ ^ }.|.    7.8.8.8.& . . . . . .   ",
"  . . . . . . . . - *   ' ] ^ ^ ^ ^ ^ ^ ^ ^ ^ ^ ^ ^ ^ ^ ^ ^ ^ ^ ^ ^ ^ ^ 9.0.| |  .>.^ ^ ^ ^ ^ ^ }.|.    a.. . . . . . . . . .   ",
"  . . . . . . . . - *   ' ] ^ ^ ^ ^ ^ ^ ^ ^ ^ ^ ^ ^ ^ ^ ^ ^ ^ ^ ^ ^ ^ ^ 9.0.| |  .>.^ ^ ^ ^ ^ ^ }.|.    b.. . . . . . . . . .   ",
"  . . . . . . . . c.*   ' ] ^ ^ ^ ^ ^ ^ ^ ^ ^ ^ ^ ^ ^ ^ ^ ^ ^ ^ ^ ^ ^ ^ 9.0.| |  .>.^ ^ ^ ^ ^ ^ }.|.    b.. . . . . . . . . .   ",
"  . . . . . d.e.e.f.l   ' ] ^ ^ ^ ^ ^ ^ ^ ^ ^ ^ ^ ^ ^ ^ ^ ^ ^ ^ ^ ^ ^ ^ 9.0.| |  .>.^ ^ ^ ^ ^ ^ }.|.    b.. . . . . . . . . .   ",
"  . . . . . g.          ' ] ^ ^ ^ ^ ^ ^ ^ ^ ^ ^ ^ ^ ^ ^ ^ ^ ^ ^ ^ ^ ^ ^ 9.0.| |  .>.^ ^ ^ ^ ^ ^ }.|.    b.. . . . . . . . . .   ",
"  . . . . . #.          ' ] ^ ^ ^ ^ ^ ^ ^ ^ ^ ^ ^ ^ ^ ^ ^ ^ ^ ^ ^ ^ ^ ^ 9.0.| |  .>.^ ^ ^ ^ ^ ^ }.|.    b.. . . . . . . . . .   ",
"  . . . . . #.      ( ( |.h.^ ^ ^ ^ ^ ^ ^ ^ ^ ^ ^ ^ ^ ^ ^ ^ ^ ^ ^ ^ ^ ^ 9.0.| |  .>.^ ^ ^ ^ ^ ^ }.|.    a.. . . . . . . . . .   ",
"  . . . . . #.    i.{.j.j.k.^ ^ ^ ^ ^ ^ ^ ^ ^ ^ ^ ^ ^ ^ ^ ^ ^ ^ >.l.m.m.1.n.o.n.p.^ ^ ^ ^ ^ ^ ^ }.|.    q.r.r.r.& . . . . . .   ",
"  . . . . . #.    s.t.^ ^ ^ ^ ^ ^ ^ ^ ^ ^ ^ ^ ^ ^ ^ ^ ^ ^ ^ ^ ^ ,._.| | u.,.^ ^ ^ ^ ^ ^ ^ ^ ^ ^ }.|.            = . . . . . .   ",
"  . . . . . #.    s.v.^ ^ ^ ^ ^ ^ ^ ^ ^ ^ ^ ^ ^ ^ ^ ^ ^ ^ ^ ^ ^ ,._.| | u.,.^ ^ ^ ^ ^ ^ ^ ^ ^ ^ }.|.            = . . . . . .   ",
"  . . . . . #.    w.t.^ ^ ^ ^ ^ ^ ^ ^ ^ ^ ^ ^ ^ ^ ^ ^ ^ ^ ^ ^ x.,._.| | u.,.y.^ ^ ^ ^ ^ ^ ^ >.z.A.  B.C.C.      = . . . . . .   ",
"  . . . . . #.    D.E.F.F.F.F.F.F.F.F.F.F.F.F.F.F.F.F.F.F.F.F.F.F.0.| | 0.F.F.F.F.F.F.F.F.F.F.F.G.H.H.H.I.b     = . . . . . .   ",
"  . . . . . #.    J.S | | | | | | | | | | | | | | | | | | | | | | | | | | | | | | | | | | | | | | | | K.5 3     = . . . . . .   ",
"  . . . . . #.    J.S | | | | | | | | | | | | | | | | | | | | | | | | | | | | | | | | | | | | | | | | 4 5 3     = . . . . . .   ",
"  . . . . . #.    L.M.S S S S S S S S S S S S S S S S S S S S S S S S S S S S S S S S S S S S S S S S S N.3     = . . . . . .   ",
"  . . . . . #.    O.L.J.J.J.J.J.J.J.J.J.J.J.J.J.J.J.J.J.J.J.J.J.J.J.J.J.J.J.J.J.J.J.J.J.J.J.J.J.J.J.J.P.Q.      = . . . . . .   ",
"  . . . . . #.                                                                                                  = . . . . . .   ",
"  . . . . . #.                                                                                                  = . . . . . .   ",
"  . . . . . # #.#.#.#.#.#.#.#.#.#.#.#.#.#.#.#.#.#.#.#.#.#.#.#.#.#.#.#.#.#.#.#.#.#.#.#.#.#.#.#.#.#.#.#.#.#.#.#.g.R.. . . . . .   ",
"                                                                                                                                "};
