/* XPM */
static char * enemyb_xpm[] = {
"64 64 89 1",
" 	c #1C1117",
".	c #422835",
"+	c #3E2632",
"@	c #26171E",
"#	c #24161D",
"$	c #24151D",
"%	c #3B2430",
"&	c #3D2531",
"*	c #1E1219",
"=	c #3A232F",
"-	c #3E2531",
";	c #1C121A",
">	c #1E1321",
",	c #1D121C",
"'	c #1C1116",
")	c #21172D",
"!	c #2B234D",
"~	c #2B244D",
"{	c #231A35",
"]	c #21182F",
"^	c #2C2550",
"/	c #231B37",
"(	c #1C1016",
"_	c #453D6B",
":	c #352E59",
"<	c #28203D",
"[	c #1C1115",
"}	c #453D6C",
"|	c #312948",
"1	c #1B1014",
"2	c #463E6B",
"3	c #322A48",
"4	c #332B4B",
"5	c #342C4C",
"6	c #342C4E",
"7	c #2D2650",
"8	c #3F375F",
"9	c #3F3760",
"0	c #2E2541",
"a	c #1B1015",
"b	c #261E3F",
"c	c #1D121A",
"d	c #1D131B",
"e	c #1D121B",
"f	c #1C1119",
"g	c #261E3D",
"h	c #1C1015",
"i	c #342B4E",
"j	c #27171F",
"k	c #2D1B24",
"l	c #36212B",
"m	c #36202B",
"n	c #3E2532",
"o	c #35202B",
"p	c #341F2A",
"q	c #311D27",
"r	c #1D1218",
"s	c #20131A",
"t	c #20141A",
"u	c #21182E",
"v	c #1E1322",
"w	c #271F40",
"x	c #282145",
"y	c #291821",
"z	c #2F1C26",
"A	c #1F1527",
"B	c #2C254F",
"C	c #2C254E",
"D	c #1F1627",
"E	c #261E3E",
"F	c #1C1218",
"G	c #1C1118",
"H	c #241C2F",
"I	c #3E3763",
"J	c #403865",
"K	c #443C6A",
"L	c #3E3761",
"M	c #3D355D",
"N	c #2D243F",
"O	c #261E32",
"P	c #443C69",
"Q	c #463E6C",
"R	c #261D31",
"S	c #433B67",
"T	c #312947",
"U	c #1E131D",
"V	c #261D32",
"W	c #211724",
"X	c #3B232F",
"                                                                ",
" ........+@############################################$%...... ",
" ........&*                                             =...... ",
" ........-*                                             =...... ",
" ........-*  ;>>>>>>>>>>>>>>>>>>>>>>>>>>>>>>>>>>>>>>,   =...... ",
" ........-* ')!~~~~~~~~~~~~~~~~~~~~~~~~~~~~~~~~~~~~~{'  =...... ",
" ........-* ']^^^^^^^^^^^^^^^^^^^^^^^^^^^^^^^^^^^^^^/(  =...... ",
" ........-* ']^^^^^^^^^^^^^^^^^^^^^^^^^^^^^^^^^^^^^^/(  =...... ",
" ........-* ']^^^^^^^^^^^^^^^^^^^^^^^^^^^^^^^^^^^^^^/(  =...... ",
" ........-* ']____^^^^^^^^^^^^^^^^^^^^^^^^^^^^^^^^^^/(  =...... ",
" ........-* ']____^^^^^^^^^^^^^^^^^^^^^^^^^^^^^^^^^^/(  =...... ",
" ........-* ']____^^^^^^^^^^^^^^^^^^^^^^^^^^^^^^^^^^/'  =...... ",
" ........-* ']____^^^^^^^^^^^^^^^^^^^^^^^^^^^^^^^:::<[  =...... ",
" ........-* ']____^^^^^^^^^^^^^^^^^^^^^^^^^^^^^^^__}|1  =...... ",
" ........-* ']____^^^^^^^^^^^^^^^^^^^^^^^^^^^^^^^__231  =...... ",
" ........-* ']____^^^^^^^^^^^^^^^^^^^^^^^^^^^^^^^__231  =...... ",
" ........-* ']____^^^^^^^^^^^^^^^^^^^^^^^^^^^^^^^__231  =...... ",
" ........-* ']____^^^^^^^^^^^^^^^^^^^^^^^^^^^^^^42_231  =...... ",
" ........-* ']____^^^^^^^^^^^^^^^^^^^^^^^^^^^^^^52_231  =...... ",
" ........-* ']____^^^^^^^^^^^^^^^^^^^^^^^^^^^^^^52_231  =...... ",
" ........-* ']____^^^^^^^^^^^^^^^^^^^^^^^^^^^^^^52_231  =...... ",
" ........-* ']____^^^^^^^^^^^^^^^^^^^^^^^^^^^^^^52_231  =...... ",
" ........-* ']____^^^^^^^^^^^^^^^^^^^^^^^^^^^^^^52_231  =...... ",
" ........-* ']____^^^^^^^^^^^^^^^^^^^^^^^^^^^^^^52_231  =...... ",
" ........-* ']____^^^^^^^^^^^^^^^^^^^^^^^^^^^^^^52_231  =...... ",
" ........-* ']____^^^^^^^^^^^^^^^^^^^^^^^^^^^^^^52_231  =...... ",
" ........-* ']____^^^^^^^^^^^^^^^^^^^^^^^^^^^^^^52_231  =...... ",
" ........-* ']____^^^^^^^^^^^^^^^^^^^^^^^^^^^^^^52_231  =...... ",
" ........-* ']____^^^^^^^^^^^^^^^^^^^^^^^^^^^^^^52_231  =...... ",
" ........-* ']____^^^^^^^^^^^^^^^^^^^^^^^^^^^^^^52_231  =...... ",
" ........-* ']____^^^^^^^^^^^^^^^^^^^^^^^^^^^^^^52_231  =...... ",
" ........-* ']____^^^^^^^^^^^^^^^^^^^^^^^^^^^^^^52_231  =...... ",
" ........-* ']____^^^^^^^^^^^^^^^^^^^^^^^^^^^^^^6__231  =...... ",
" ........-* ']____^^^^^^^^^^^^^^^^^^^^^^^^^^^^^^^__231  =...... ",
" ........-* ']____^^^^^^^^^^^^^^^^^^^^^^^^^^^^^^^__231  =...... ",
" ........-* ']____^^^^^^^^^^^^^^^^^^^^^^^^^^^^^^^__231  =...... ",
" ........-* ']____^^^^^^^^^^^^^^^^^^^^^^^^^^^^^^^__231  =...... ",
" ........-* ']____^^^^^^^^^^^^^^^^^^^^^^^^^^^^^^^__231  =...... ",
" ........-* ']____^^^^^^^^^^^^^^^^^^^^^^^^^^^^^^^__231  =...... ",
" ........-* ']____^^^^^^^^^^^^^^^^^^^^^^^^^^7^^^^8890a  =...... ",
" ........-* ']____^^^^^^^^^^^^^^^^^^^^^^^^^^^^^^bcdef   =...... ",
" ........-* ']____^^^^^^^^^^^^^^^^^^^^^^^^^^^^^^gh      =...... ",
" ........-* ']____^^^^^^^^^^^^^^^^^^^^^^^^^^^^^^gh      =...... ",
" ........-* ']^^^^^^^^^^^^^^^^^^^^^^^^^^i^^^^^^^gh  jkkk&...... ",
" ........-* ']^^^^^^^^^^^^^^^^^^^^^^^^^^^^^^^^^^gh  l.......... ",
" ........-* ']^^^^^^^^^^^^^^^^^^^^^^^^^^^^^^^^^^gh  m.......... ",
" ........n* ']^^^^^^^^^^^^^^^^^^^^^^^^^^^^^^^^^^gh  m.......... ",
" .....oppqr ']^^^^^^^^^^^^^^^^^^^^^^^^^^^^^^^^^^gh  m.......... ",
" .....s     ']^^^^^^^^^^^^^^^^^^^^^^^^^^^^^^^^^^gh  m.......... ",
" .....t     ']^^^^^^^^^^^^^^^^^^^^^^^^^^^^^^^^^^gh  m.......... ",
" .....t   ((hu^^^^^^^^^^^^^^^^^^^^^^^^^^^^^^^^^^gh  l.......... ",
" .....t  vbwwx^^^^^^^^^^^^^^^^^^^^^^^^^^^^^^^^^^gh  yzzz&...... ",
" .....t  AB^^^^^^^^^^^^^^^^^^^^^^^^^^^^^^^^^^^^^gh      =...... ",
" .....t  AC^^^^^^^^^^^^^^^^^^^^^^^^^^^^^^^^^^^^^gh      =...... ",
" .....t  DB^^^^^^^^^^^^^^^^^^^^^^^^^^^^^^^^^^^^^E FGG   =...... ",
" .....t  HIJJJJJJJJJJJJJJJJJJJJJJK__KJJJJJJJJJJJLMMMNa  =...... ",
" .....t  OP________________________________________Q31  =...... ",
" .....t  OP________________________________________231  =...... ",
" .....t  RSPPPPPPPPPPPPPPPPPPPPPPPPPPPPPPPPPPPPPPPPPT1  =...... ",
" .....t  UROOOOOOOOOOOOOOOOOOOOOOOOOOOOOOOOOOOOOOOOVW   =...... ",
" .....t                                                 =...... ",
" .....t                                                 =...... ",
" .....#ttttttttttttttttttttttttttttttttttttttttttttttttsX...... ",
"                                                                "};
