/* XPM */
static char * exit1_xpm[] = {
"64 64 385 2",
"  	c #1C1117",
". 	c #422835",
"+ 	c #452B34",
"@ 	c #503431",
"# 	c #503531",
"$ 	c #4E3331",
"% 	c #432A31",
"& 	c #3D2531",
"* 	c #3F2631",
"= 	c #482E31",
"- 	c #4B3033",
"; 	c #432935",
"> 	c #60422C",
", 	c #61432B",
"' 	c #5C3F2B",
") 	c #442C2A",
"! 	c #331F2A",
"~ 	c #341F2A",
"{ 	c #3A242A",
"] 	c #51372B",
"^ 	c #62432B",
"/ 	c #573A2F",
"( 	c #442A34",
"_ 	c #4D3232",
": 	c #654629",
"< 	c #664729",
"[ 	c #614329",
"} 	c #442D28",
"| 	c #301D27",
"1 	c #382427",
"2 	c #543A28",
"3 	c #674729",
"4 	c #674829",
"5 	c #5A3D2E",
"6 	c #452A34",
"7 	c #4D3132",
"8 	c #604329",
"9 	c #412734",
"0 	c #3C2430",
"a 	c #3A232F",
"b 	c #3B242F",
"c 	c #482F2E",
"d 	c #604228",
"e 	c #412B23",
"f 	c #281821",
"g 	c #291920",
"h 	c #3E2924",
"i 	c #503628",
"j 	c #4C3328",
"k 	c #342027",
"l 	c #583C2B",
"m 	c #3E262E",
"n 	c #3F2632",
"o 	c #402733",
"p 	c #35202B",
"q 	c #311E28",
"r 	c #331F28",
"s 	c #432C28",
"t 	c #5F4227",
"u 	c #3C281E",
"v 	c #1D1218",
"w 	c #1E1218",
"x 	c #1F1319",
"y 	c #493121",
"z 	c #644629",
"A 	c #634529",
"B 	c #644529",
"C 	c #5E4129",
"D 	c #372227",
"E 	c #563B29",
"F 	c #362228",
"G 	c #3C2530",
"H 	c #412835",
"I 	c #3F2733",
"J 	c #34202A",
"K 	c #311E27",
"L 	c #422C27",
"M 	c #3C281D",
"N 	c #1B1117",
"O 	c #1E1217",
"P 	c #4A3221",
"Q 	c #372327",
"R 	c #563B28",
"S 	c #352127",
"T 	c #412834",
"U 	c #3E2632",
"V 	c #2F1D27",
"W 	c #2F1C26",
"X 	c #301D26",
"Y 	c #422B27",
"Z 	c #483120",
"` 	c #644528",
" .	c #634528",
"..	c #5E4128",
"+.	c #362226",
"@.	c #372326",
"#.	c #543928",
"$.	c #402734",
"%.	c #39222E",
"&.	c #38222D",
"*.	c #37212C",
"=.	c #321E28",
"-.	c #291922",
";.	c #26171F",
">.	c #25161E",
",.	c #27181F",
"'.	c #3D2921",
").	c #1D1217",
"!.	c #34221B",
"~.	c #462F1F",
"{.	c #452F1F",
"].	c #422C1F",
"^.	c #291A1E",
"/.	c #25171E",
"(.	c #301F1F",
"_.	c #523825",
":.	c #2E1C26",
"<.	c #38212D",
"[.	c #3B232F",
"}.	c #3B2430",
"|.	c #321E29",
"1.	c #1F1318",
"2.	c #3A271D",
"3.	c #2A1B19",
"4.	c #513723",
"5.	c #2D1B25",
"6.	c #22151C",
"7.	c #2A1922",
"8.	c #311D27",
"9.	c #36212C",
"0.	c #1D1118",
"a.	c #1F1317",
"b.	c #3A261D",
"c.	c #513722",
"d.	c #22141C",
"e.	c #1B1017",
"f.	c #2D1B24",
"g.	c #2E1C25",
"h.	c #281A19",
"i.	c #33221B",
"j.	c #33211B",
"k.	c #31201B",
"l.	c #1E1317",
"m.	c #271820",
"n.	c #2E1B25",
"o.	c #37212D",
"p.	c #27171F",
"q.	c #23151C",
"r.	c #412C1E",
"s.	c #593E25",
"t.	c #593D25",
"u.	c #533A23",
"v.	c #251819",
"w.	c #20141B",
"x.	c #24151C",
"y.	c #21141B",
"z.	c #20131A",
"A.	c #4A3321",
"B.	c #604327",
"C.	c #291A19",
"D.	c #1D1117",
"E.	c #2A1921",
"F.	c #22141B",
"G.	c #20131B",
"H.	c #604227",
"I.	c #281921",
"J.	c #2B1A23",
"K.	c #34231B",
"L.	c #593E26",
"M.	c #5A3F26",
"N.	c #543B24",
"O.	c #36241C",
"P.	c #402B1E",
"Q.	c #583D25",
"R.	c #573C24",
"S.	c #523823",
"T.	c #271919",
"U.	c #483121",
"V.	c #5B3F26",
"W.	c #4D3526",
"X.	c #1F131A",
"Y.	c #20141A",
"Z.	c #281B19",
"`.	c #3F2D20",
" +	c #402E21",
".+	c #3C2B1F",
"++	c #2A1C1A",
"@+	c #31211B",
"#+	c #2F1F1A",
"$+	c #211518",
"%+	c #34241D",
"&+	c #3B2823",
"*+	c #241819",
"=+	c #34261F",
"-+	c #35271F",
";+	c #32241E",
">+	c #1F1418",
",+	c #2C1F1C",
"'+	c #332322",
")+	c #301E27",
"!+	c #32251E",
"~+	c #251919",
"{+	c #2D1F1C",
"]+	c #332422",
"^+	c #301E26",
"/+	c #231719",
"(+	c #291D1B",
"_+	c #271C1A",
":+	c #312220",
"<+	c #2A1A21",
"[+	c #291821",
"}+	c #291921",
"|+	c #31241E",
"1+	c #2D211C",
"2+	c #26181D",
"3+	c #24161C",
"4+	c #1C1219",
"5+	c #1D121F",
"6+	c #1E131F",
"7+	c #1D121A",
"8+	c #1C1116",
"9+	c #1F1527",
"0+	c #2A224A",
"a+	c #2B234C",
"b+	c #2A234B",
"c+	c #211830",
"d+	c #281920",
"e+	c #23171D",
"f+	c #24171D",
"g+	c #23161C",
"h+	c #201629",
"i+	c #2B244E",
"j+	c #2C2550",
"k+	c #2C254F",
"l+	c #221932",
"m+	c #1C1015",
"n+	c #21151B",
"o+	c #422A34",
"p+	c #412D34",
"q+	c #412E34",
"r+	c #3D2A31",
"s+	c #27191F",
"t+	c #23161B",
"u+	c #36252C",
"v+	c #402D33",
"w+	c #422C34",
"x+	c #49303B",
"y+	c #513841",
"z+	c #523A42",
"A+	c #4C353D",
"B+	c #2D1E24",
"C+	c #1B1016",
"D+	c #432E36",
"E+	c #513941",
"F+	c #4E353E",
"G+	c #2E2752",
"H+	c #322B55",
"I+	c #322B56",
"J+	c #312A55",
"K+	c #241C35",
"L+	c #1C1115",
"M+	c #362F5B",
"N+	c #433B68",
"O+	c #443C69",
"P+	c #433B69",
"Q+	c #2D2440",
"R+	c #1B1013",
"S+	c #2C1D24",
"T+	c #1A1016",
"U+	c #372F5B",
"V+	c #443C6A",
"W+	c #453D6B",
"X+	c #453D6A",
"Y+	c #2E2641",
"Z+	c #4E363E",
"`+	c #482F3A",
" @	c #4E363F",
".@	c #4F3740",
"+@	c #4B343C",
"@@	c #35242A",
"#@	c #2B1D22",
"$@	c #2B1D23",
"%@	c #433B66",
"&@	c #3E375F",
"*@	c #3E365F",
"=@	c #442F37",
"-@	c #4E373F",
";@	c #4C333D",
">@	c #442B37",
",@	c #462E39",
"'@	c #472E39",
")@	c #472F39",
"!@	c #473139",
"~@	c #473239",
"{@	c #422E35",
"]@	c #3A3257",
"^@	c #231929",
"/@	c #201724",
"(@	c #211827",
"_@	c #463E6B",
":@	c #463138",
"<@	c #473039",
"[@	c #462D38",
"}@	c #452B37",
"|@	c #393155",
"1@	c #1F151F",
"2@	c #181117",
"3@	c #121117",
"4@	c #141117",
"5@	c #161117",
"6@	c #1D131B",
"7@	c #3A3256",
"8@	c #49303A",
"9@	c #422935",
"0@	c #4B353D",
"a@	c #1A1117",
"b@	c #701420",
"c@	c #9D1728",
"d@	c #921626",
"e@	c #111117",
"f@	c #841524",
"g@	c #9C1728",
"h@	c #CC1B32",
"i@	c #BE1A2F",
"j@	c #021116",
"k@	c #051116",
"l@	c #AB182B",
"m@	c #CB1B32",
"n@	c #AC182B",
"o@	c #191117",
"p@	c #831523",
"q@	c #B8192E",
"r@	c #0A1116",
"s@	c #0C1116",
"t@	c #9A1728",
"u@	c #B7192E",
"v@	c #9B1728",
"w@	c #291A28",
"x@	c #2C203E",
"y@	c #271E3D",
"z@	c #251C3B",
"A@	c #251D3C",
"B@	c #291F3D",
"C@	c #2E213F",
"D@	c #342747",
"E@	c #3B2F51",
"F@	c #3C3052",
"G@	c #352843",
"H@	c #281923",
"I@	c #211820",
"J@	c #20171F",
"K@	c #20181F",
"L@	c #281820",
"M@	c #201820",
"N@	c #1F161E",
"O@	c #131218",
"P@	c #2E2640",
"Q@	c #392F51",
"R@	c #3C3051",
"S@	c #2F2236",
"T@	c #26171E",
"U@	c #322128",
"V@	c #4E353F",
"W@	c #4A323C",
"X@	c #3D2831",
"Y@	c #3C2830",
"Z@	c #3B272F",
"`@	c #35242B",
" #	c #332228",
".#	c #332229",
"+#	c #37252C",
"@#	c #332329",
"##	c #38252D",
"$#	c #3C2730",
"%#	c #442D37",
"&#	c #4D353E",
"*#	c #4D363E",
"=#	c #4D363D",
"-#	c #4B323C",
";#	c #452C38",
">#	c #432936",
",#	c #472D38",
"'#	c #4C343D",
")#	c #4B333C",
"!#	c #492F3A",
"                                                                                                                                ",
"  . . . . . . . . . . . . . + @ # # $ % & & & & & & & & & & & & & & & & & & & & & & & & * = # # # - ; . . . . . . . . . . . .   ",
"  . . . . . . . . . . . . ; - > , , ' ) ! ~ ~ ~ ~ ~ ~ ~ ~ ~ ~ ~ ~ ~ ~ ~ ~ ~ ~ ~ ~ ~ ~ ! { ] , , ^ / ( . . . . . . . . . . . .   ",
"  . . . . . . . . . . . . ; _ : < < [ } | | | | | | | | | | | | | | | | | | | | | | | | 1 2 3 < 4 5 6 . . . . . . . . . . . .   ",
"  . . . . . . . . . . . . ; 7 : < < 8 } | | | | | | | | | | | | | | | | | | | | | | | | 1 2 < < < 5 6 . . . . . . . . . . . .   ",
"  . . . . . . . . . . . . ; 7 : < < 8 } | | | | | | | | | | | | | | | | | | | | | | | | 1 2 < < < 5 6 . . . . . . . . . . . .   ",
"  . . . . . . . . . . . . ; 7 : < < 8 } | | | | | | | | | | | | | | | | | | | | | | | | 1 2 < < < 5 6 . . . . . . . . . . . .   ",
"  . . . . . . . . . . . . ; 7 : < < 8 } | | | | | | | | | | | | | | | | | | | | | | | | 1 2 < < < 5 6 . . . . . . . . . . . .   ",
"  . . . . 9 0 a a a a a a b c : < < d e f f g h i i i i i i i i i i i i i i i i j k | | 1 2 < < 3 l m a a a a a a a n . . . .   ",
"  . . . . o p q q q q q q r s : < < t u v w x y z A A A A A A A A A A A A A A B C D | | 1 2 < < 3 E F q q q q q q q G H . . .   ",
"  . . . . I J | | | | | | K L : < < t M N   O P 4 < < < < < < < < < < < < < < < [ Q | | 1 2 < < 3 R S | | | | | | | 0 H . . .   ",
"  . . . . I J | | | | | | K L : < < t M N   O P 4 < < < < < < < < < < < < < < < [ Q | | 1 2 < < 3 R S | | | | | | | 0 H . . .   ",
"  . . . . I J | | | | | | K L : < < t M N   O P 4 < < < < < < < < < < < < < < < [ Q | | 1 2 < < 3 R S | | | | | | | 0 H . . .   ",
"  . . . . I J | | | | | | K L : < < t M N   O P 4 < < < < < < < < < < < < < < < [ Q | | 1 2 < < 3 R S | | | | | | | 0 H . . .   ",
"  T 9 9 9 U ~ | | | V W W X Y : < < t M N   O Z `  . . . . . . . . . . . . . . ...+.W W @.#.< < 3 R S | | | W W W W b $.9 9 T   ",
"  U %.&.&.*.=.| | | -.;.>.,.'.: < < t M N   ).!.~.{.{.{.{.{.{.{.{.{.{.{.{.{.{.{.].^./.>.(._.< < 3 R S | | :.f >.>./.=.<.&.&.[.  ",
"  }.|.| | | | | | | >.v   1.2.: < < t M N     ).O O O O O O O O O O O O O O O O O       3.4.< < 3 R S | | 5.6.      7.| | 8.9.  ",
"  }.|.| | | | | | | >.0.  a.b.: < < t M N                                             N 3.c.< < 3 R S | | 5.d.      -.V | | 9.  ",
"  }.|.| | | | | | | >.0.  a.b.: < < t M N                                             N 3.c.< < 3 R S | | 5.d.      -.V | | 9.  ",
"  }.|.| | | | | | | >.0.  a.b.: < < t M N                                             N 3.c.< < 3 R S | | 5.d.      -.V | | 9.  ",
"  }.|.| | | | | | | >.0.  a.b.: < < t M N     N e.e.e.e.e.e.e.e.e.e.e.e.e.e.e.e.e.    N 3.c.< < 3 R S | | 5.d.      -.| | | 9.  ",
"  a | f.5.g.V | | | >.0.  a.b.: < < t M N     h.i.j.j.j.j.j.j.j.j.j.j.j.j.j.j.i.k.l.  N 3.c.< < 3 R S | | 5.d.      m.f.5.n.!   ",
"  o.p.q.q.>.g.| | | >.0.  a.b.: < < t M N   ).r.s.t.t.t.t.t.t.t.t.t.t.t.t.t.t.t.u.v.  N 3.c.< < 3 R S | | 5.d.      w.q.q.x.5.  ",
"  p y.N   z.f.| | | >.0.  a.b.: < < t M N   O A.4 < < < < < < < < < < < < < < < B.C.  N 3.c.< < 3 R S | | 5.d.            D.E.  ",
"  p F.    z.f.| | | >.0.  a.b.: < < t M N   O P 4 < < < < < < < < < < < < < < < B.C.  N 3.c.< < 3 R S | | 5.d.            0.E.  ",
"  p F.    z.f.| | | >.0.  a.b.: < < t M N   O P 4 < < < < < < < < < < < < < < < B.C.  N 3.c.< < 3 R S | | 5.d.            0.E.  ",
"  p F.    z.f.| | | >.0.  a.b.: < < t M N   O P 4 < < < < < < < < < < < < < < < B.C.  N 3.c.< < 3 R S | | 5.d.            0.E.  ",
"  p F.    G.5.| | | >.0.  a.2.: < 3 H.M N   O A.4 < < < < < < < < < < < < < < < B.C.  N 3.c.4 < 4 R S | | 5.d.            0.E.  ",
"  p F.    x I.J.J.J.q.0.  O K.L.M.M.N.O.    ).P.Q.R.R.R.R.R.R.R.R.R.R.R.R.R.R.R.S.v.    T.U.M.M.V.W.k | | 5.d.            0.E.  ",
"  p F.    D.X.Y.Y.z.w     ).Z.`. + +.+++      T.@+k.k.k.k.k.k.k.k.k.k.k.k.k.k.k.#+l.    $+%+ + + +&+K | | 5.d.            0.E.  ",
"  p F.                    ).*+=+-+-+;+v.      N e.e.e.e.e.e.e.e.e.e.e.e.e.e.e.e.e.      >+,+-+-+-+'+)+| | 5.d.            0.E.  ",
"  p F.                    ).*+=+-+-+!+~+                                                >+{+-+-+-+]+)+| | 5.d.            0.E.  ",
"  p F.                    ).*+=+-+-+!+~+                                                >+{+-+-+-+]+)+| | 5.d.            0.E.  ",
"  p F.                    ).*+=+-+-+!+~+                                                >+{+-+-+-+]+)+| | 5.d.            0.E.  ",
"  p F.                    ).*+=+-+-+!+~+        D.                                      >+{+-+-+-+]+^+| | 5.d.            0.E.  ",
"  p F.                    ).*+=+-+-+!+~+      /+(+(+(+(+(+(+(+(+(+(+(+(+(+(+(+(+_+).    >+{+-+-+-+:+<+[+}+;.X.            0.E.  ",
"  p F.                    ).*+=+-+-+!+~+    D.(+=+=+=+=+=+=+=+=+=+=+=+=+=+=+=+=+|+1.    >+{+-+-+-+1+>+w w v               0.E.  ",
"  p F.                    ).*+2+3+3+3+q.q.q.q.q.3+3+3+3+3+3+3+3+3+3+3+3+3+3+3+3+3+q.q.q.q.q.3+3+3+3+l.                    0.E.  ",
"  p F.                    ).*+x                                                                   D.l.                    0.E.  ",
"  p F.                    ).*+x   4+5+6+6+6+6+6+6+6+6+6+6+6+6+6+6+6+6+6+6+6+6+6+6+6+6+6+6+6+6+7+  D.l.                    0.E.  ",
"  p F.                    ).*+x 8+9+0+a+a+a+a+a+a+a+a+a+a+a+a+a+a+a+a+a+a+a+a+a+a+a+a+a+a+a+b+c+8+D.l.                    0.E.  ",
"  &.d+e+f+g+w             ).*+x 8+h+i+j+j+j+j+j+j+j+j+j+j+j+j+j+j+j+j+j+j+j+j+j+j+j+j+j+j+j+k+l+m+D.l.              n+e+f+f+g.  ",
"  o+p+q+q+r+s+            D.t+X.8+h+i+j+j+j+j+j+j+j+j+j+j+j+j+j+j+j+j+j+j+j+j+j+j+j+j+j+j+j+k+l+m+  w               u+v+q+p+w+  ",
"  x+y+z+z+A+B+C+            d.X.8+h+i+j+j+j+j+j+j+j+j+j+j+j+j+j+j+j+j+j+j+j+j+j+j+j+j+j+j+j+k+l+m+  w             D.D+E+z+z+F+  ",
"  x+y+z+z+A+B+C+            d.X.8+h+i+j+j+j+j+j+j+j+j+j+j+j+j+j+j+j+j+j+j+j+j+j+j+j+j+j+j+j+k+l+m+  w             D.D+E+z+z+F+  ",
"  x+y+z+z+A+B+C+            d.X.8+h+i+j+j+j+j+j+j+j+G+H+I+I+I+I+I+I+I+I+I+I+I+I+I+I+I+I+I+I+J+K+L+  w             D.D+E+z+z+F+  ",
"  x+y+z+z+A+B+C+            d.X.8+h+i+j+j+j+j+j+j+j+M+N+O+O+O+O+O+O+O+O+O+O+O+O+O+O+O+O+O+O+P+Q+R+  w             D.D+E+z+z+F+  ",
"  x+y+z+z+A+S+T+C+C+C+C+C+  F.X.8+h+i+j+j+j+j+j+j+j+U+V+W+W+W+W+W+W+W+W+W+W+W+W+W+W+W+W+W+W+X+Y+R+  0.C+C+C+C+C+C+  D+E+z+z+Z+  ",
"  `+ @.@.@+@@@#@$@$@$@$@$@$@S+X.8+h+i+j+j+j+j+j+j+j+U+V+W+%@&@*@*@*@*@*@*@*@*@*@*@*@*@*@%@W+X+Y+R+D.$@$@$@$@$@$@$@$@=@-@.@.@;@  ",
"  >@,@'@'@)@!@~@~@~@~@~@~@~@{@X.8+h+i+j+j+j+j+j+j+j+U+V+W+]@^@/@/@/@/@/@/@/@/@/@/@/@/@(@]@_@X+Y+R+v :@~@~@~@~@~@~@~@<@'@'@'@[@  ",
"  . . . . }@.@z+z+z+z+z+z+z+A+X.8+h+i+j+j+j+j+j+j+j+U+V+W+|@1@  2@3@4@        5@3@5@  6@7@_@X+Y+R+v E+z+z+z+z+z+z+z+8@9@. . .   ",
"  . . . . }@.@z+z+z+z+z+z+z+0@X.8+h+i+j+j+j+j+j+j+j+U+V+W+|@1@a@b@c@d@e@    3@f@g@f@3@6@7@_@X+Y+R+v E+z+z+z+z+z+z+z+8@; . . .   ",
"  . . . . }@.@z+z+z+z+z+z+z+0@X.8+h+i+j+j+j+j+j+j+j+U+V+W+|@1@2@d@h@i@j@    k@l@m@n@k@6@7@_@X+Y+R+v E+z+z+z+z+z+z+z+8@; . . .   ",
"  . . . . }@.@z+z+z+z+z+z+z+0@X.8+h+i+j+j+j+j+j+j+j+U+V+W+|@1@o@p@q@l@r@    s@t@u@v@s@6@7@_@X+Y+R+v E+z+z+z+z+z+z+z+8@; . . .   ",
"  . . . . }@.@z+z+z+z+z+z+z+0@-.m.w@x@y@z@A@A@B@C@C@D@E@F@G@H@m.I@J@K@L@m.m.L@M@N@O@  4+P@Q@R@S@T@U@E+z+z+z+z+z+z+z+8@; . . .   ",
"  . . . . >@;@V@V@V@V@V@V@F+W@X@Y@Y@Z@`@ # #.#+#Y@Y@Y@Y@Y@Y@Y@Y@Y@Y@Y@Y@Y@Y@Y@Y@Z@@# # #@###Y@Y@$#%#&#V@V@V@V@V@V@V@'@9@. . .   ",
"  . . . . 9@>@}@}@}@}@}@}@}@'@Z+-@-@-@*#=#=#*#*#-@-@-@-@-@-@-@-@-@-@-@-@-@-@-@-@-@*#=#=#*#*#-@-@-@-#;#}@}@}@}@}@}@}@>#. . . .   ",
"  . . . . . . . . . . . . . ,#z+z+z+z+z+z+z+z+z+z+z+z+z+z+z+z+z+z+z+z+z+z+z+z+z+z+z+z+z+z+z+z+z+z+'#>#. . . . . . . . . . . .   ",
"  . . . . . . . . . . . . . ,#z+z+z+z+z+z+z+z+z+z+z+z+z+z+z+z+z+z+z+z+z+z+z+z+z+z+z+z+z+z+z+z+z+z+'#>#. . . . . . . . . . . .   ",
"  . . . . . . . . . . . . . ,#z+z+z+z+z+z+z+z+z+z+z+z+z+z+z+z+z+z+z+z+z+z+z+z+z+z+z+z+z+z+z+z+z+z+'#>#. . . . . . . . . . . .   ",
"  . . . . . . . . . . . . . ,#z+z+z+z+z+z+z+z+z+z+z+z+z+z+z+z+z+z+z+z+z+z+z+z+z+z+z+z+z+z+z+z+z+z+'#>#. . . . . . . . . . . .   ",
"  . . . . . . . . . . . . . [@E+z+z+z+z+z+z+z+z+z+z+z+z+z+z+z+z+z+z+z+z+z+z+z+z+z+z+z+z+z+z+z+z+z+'#>#. . . . . . . . . . . .   ",
"  . . . . . . . . . . . . . }@)#'#'#'#'#'#'#'#'#'#'#'#'#'#'#'#'#'#'#'#'#'#'#'#'#'#'#'#'#'#'#'#'#'#!#; . . . . . . . . . . . .   ",
"                                                                                                                                "};
