/* XPM */
static char * exit2_xpm[] = {
"64 64 548 2",
"  	c #1C1117",
". 	c #422835",
"+ 	c #452B34",
"@ 	c #503431",
"# 	c #503531",
"$ 	c #4E3331",
"% 	c #432A31",
"& 	c #3D2531",
"* 	c #3F2631",
"= 	c #482E31",
"- 	c #4B3033",
"; 	c #432935",
"> 	c #60422C",
", 	c #61432B",
"' 	c #5C3F2B",
") 	c #442C2A",
"! 	c #331F2A",
"~ 	c #341F2A",
"{ 	c #3A242A",
"] 	c #51372B",
"^ 	c #62432B",
"/ 	c #573A2F",
"( 	c #442A34",
"_ 	c #4D3232",
": 	c #654629",
"< 	c #664729",
"[ 	c #614329",
"} 	c #442D28",
"| 	c #301D27",
"1 	c #382427",
"2 	c #543A28",
"3 	c #674729",
"4 	c #674829",
"5 	c #5A3D2E",
"6 	c #452A34",
"7 	c #4D3132",
"8 	c #604329",
"9 	c #412734",
"0 	c #3C2430",
"a 	c #3A232F",
"b 	c #3B242F",
"c 	c #482F2E",
"d 	c #604228",
"e 	c #412B23",
"f 	c #281821",
"g 	c #291920",
"h 	c #3E2924",
"i 	c #503628",
"j 	c #4C3328",
"k 	c #342027",
"l 	c #583C2B",
"m 	c #3E262E",
"n 	c #3F2632",
"o 	c #402733",
"p 	c #35202B",
"q 	c #311E28",
"r 	c #331F28",
"s 	c #432C28",
"t 	c #5F4227",
"u 	c #3C281E",
"v 	c #1D1218",
"w 	c #1E1218",
"x 	c #1F1319",
"y 	c #493121",
"z 	c #644629",
"A 	c #634529",
"B 	c #644529",
"C 	c #5E4129",
"D 	c #372227",
"E 	c #563B29",
"F 	c #362228",
"G 	c #3C2530",
"H 	c #412835",
"I 	c #3F2733",
"J 	c #34202A",
"K 	c #311E27",
"L 	c #422C27",
"M 	c #3C281D",
"N 	c #1B1117",
"O 	c #1E1217",
"P 	c #4A3221",
"Q 	c #372327",
"R 	c #563B28",
"S 	c #352127",
"T 	c #412834",
"U 	c #3E2632",
"V 	c #2F1D27",
"W 	c #2F1C26",
"X 	c #301D26",
"Y 	c #422B27",
"Z 	c #483120",
"` 	c #644528",
" .	c #634528",
"..	c #5E4128",
"+.	c #362226",
"@.	c #372326",
"#.	c #543928",
"$.	c #402734",
"%.	c #39222E",
"&.	c #38222D",
"*.	c #37212C",
"=.	c #321E28",
"-.	c #291922",
";.	c #26171F",
">.	c #25161E",
",.	c #27181F",
"'.	c #3D2921",
").	c #1D1217",
"!.	c #34221B",
"~.	c #462F1F",
"{.	c #452F1F",
"].	c #422C1F",
"^.	c #291A1E",
"/.	c #25171E",
"(.	c #301F1F",
"_.	c #523825",
":.	c #2E1C26",
"<.	c #38212D",
"[.	c #3B232F",
"}.	c #3B2430",
"|.	c #321E29",
"1.	c #1F1318",
"2.	c #3A271D",
"3.	c #2A1B19",
"4.	c #513723",
"5.	c #2D1B25",
"6.	c #22151C",
"7.	c #2A1922",
"8.	c #311D27",
"9.	c #36212C",
"0.	c #1D1118",
"a.	c #1F1317",
"b.	c #3A261D",
"c.	c #513722",
"d.	c #22141C",
"e.	c #1B1017",
"f.	c #2D1B24",
"g.	c #2E1C25",
"h.	c #281A19",
"i.	c #33221B",
"j.	c #33211B",
"k.	c #31201B",
"l.	c #1E1317",
"m.	c #271820",
"n.	c #2E1B25",
"o.	c #37212D",
"p.	c #27171F",
"q.	c #23151C",
"r.	c #412C1E",
"s.	c #593E25",
"t.	c #593D25",
"u.	c #533A23",
"v.	c #251819",
"w.	c #20141B",
"x.	c #24151C",
"y.	c #21141B",
"z.	c #20131A",
"A.	c #4A3321",
"B.	c #604327",
"C.	c #291A19",
"D.	c #1D1117",
"E.	c #2A1921",
"F.	c #22141B",
"G.	c #20131B",
"H.	c #604227",
"I.	c #281921",
"J.	c #2B1A23",
"K.	c #34231B",
"L.	c #593E26",
"M.	c #5A3F26",
"N.	c #543B24",
"O.	c #36241C",
"P.	c #402B1E",
"Q.	c #583D25",
"R.	c #573C24",
"S.	c #523823",
"T.	c #271919",
"U.	c #483121",
"V.	c #5B3F26",
"W.	c #4D3526",
"X.	c #1F131A",
"Y.	c #20141A",
"Z.	c #281B19",
"`.	c #2E1E1E",
" +	c #28191D",
".+	c #27191D",
"++	c #26181C",
"@+	c #23161C",
"#+	c #21151B",
"$+	c #24171C",
"%+	c #24161C",
"&+	c #22151B",
"*+	c #25171C",
"=+	c #26191D",
"-+	c #312020",
";+	c #241819",
">+	c #24171A",
",+	c #1D1219",
"'+	c #291B1D",
")+	c #301E27",
"!+	c #23171A",
"~+	c #1C121A",
"{+	c #1F1423",
"]+	c #1F1426",
"^+	c #1E1422",
"/+	c #281B1D",
"(+	c #1C1118",
"_+	c #1F1527",
":+	c #282044",
"<+	c #2A2249",
"[+	c #2A2349",
"}+	c #2A234A",
"|+	c #261E3E",
"1+	c #1F1525",
"2+	c #1C1115",
"3+	c #20162A",
"4+	c #2C2550",
"5+	c #272043",
"6+	c #1F1528",
"7+	c #1C1015",
"8+	c #272044",
"9+	c #301E26",
"0+	c #271A1B",
"a+	c #2A1A21",
"b+	c #291821",
"c+	c #291921",
"d+	c #2D2651",
"e+	c #1F1628",
"f+	c #251919",
"g+	c #1F1418",
"h+	c #312955",
"i+	c #362E59",
"j+	c #372F5A",
"k+	c #372F5B",
"l+	c #2F284D",
"m+	c #22192C",
"n+	c #1B1014",
"o+	c #362E5A",
"p+	c #403865",
"q+	c #423A67",
"r+	c #423A68",
"s+	c #393157",
"t+	c #261D31",
"u+	c #1B1013",
"v+	c #38305C",
"w+	c #433B69",
"x+	c #453D6B",
"y+	c #453D6A",
"z+	c #443C6A",
"A+	c #463E6C",
"B+	c #3C345A",
"C+	c #271F32",
"D+	c #403862",
"E+	c #393156",
"F+	c #393155",
"G+	c #383155",
"H+	c #3C345B",
"I+	c #433B67",
"J+	c #281920",
"K+	c #23171D",
"L+	c #24171D",
"M+	c #443C69",
"N+	c #3A3257",
"O+	c #261E31",
"P+	c #231B2C",
"Q+	c #211B2C",
"R+	c #1E1B2B",
"S+	c #201B2C",
"T+	c #241B2C",
"U+	c #1F1B2C",
"V+	c #221B2C",
"W+	c #231A2B",
"X+	c #2E2642",
"Y+	c #463E6D",
"Z+	c #422A34",
"`+	c #412D34",
" @	c #412E34",
".@	c #3D2A31",
"+@	c #27191F",
"@@	c #23161B",
"#@	c #383053",
"$@	c #1E1520",
"%@	c #251116",
"&@	c #411219",
"*@	c #54121B",
"=@	c #49121A",
"-@	c #1E1116",
";@	c #1C1116",
">@	c #231116",
",@	c #50121B",
"'@	c #56121B",
")@	c #341117",
"!@	c #1D1014",
"~@	c #2B223A",
"{@	c #403861",
"]@	c #473F6D",
"^@	c #24171B",
"/@	c #36252C",
"(@	c #402D33",
"_@	c #422C34",
":@	c #49303B",
"<@	c #513841",
"[@	c #523A42",
"}@	c #4C353D",
"|@	c #2D1E24",
"1@	c #1B1016",
"2@	c #383054",
"3@	c #1D1522",
"4@	c #3C1219",
"5@	c #7A1522",
"6@	c #A11729",
"7@	c #8A1525",
"8@	c #261118",
"9@	c #341118",
"0@	c #981728",
"a@	c #A3172A",
"b@	c #5E131D",
"c@	c #221015",
"d@	c #2B233A",
"e@	c #23151D",
"f@	c #432E36",
"g@	c #513941",
"h@	c #4E353E",
"i@	c #1B1522",
"j@	c #47121B",
"k@	c #961627",
"l@	c #C41A30",
"m@	c #A8182A",
"n@	c #2B1118",
"o@	c #3D1219",
"p@	c #B9192E",
"q@	c #C61A31",
"r@	c #731421",
"s@	c #2A233A",
"t@	c #1C1522",
"u@	c #3A1219",
"v@	c #781421",
"w@	c #9D1728",
"x@	c #871624",
"y@	c #261117",
"z@	c #331118",
"A@	c #951627",
"B@	c #9F1729",
"C@	c #5A131D",
"D@	c #29233A",
"E@	c #211622",
"F@	c #241118",
"G@	c #1F1117",
"H@	c #131117",
"I@	c #161117",
"J@	c #151117",
"K@	c #141116",
"L@	c #49111B",
"M@	c #48101A",
"N@	c #36233B",
"O@	c #3F3861",
"P@	c #2C1D24",
"Q@	c #1A1016",
"R@	c #393054",
"S@	c #501525",
"T@	c #721122",
"U@	c #4F111C",
"V@	c #171117",
"W@	c #181117",
"X@	c #1A1117",
"Y@	c #1E1117",
"Z@	c #9C102B",
"`@	c #9B0F2A",
" #	c #59223D",
".#	c #3C3861",
"+#	c #4E363E",
"@#	c #482F3A",
"##	c #4E363F",
"$#	c #4F3740",
"%#	c #4B343C",
"&#	c #35242A",
"*#	c #2B1D22",
"=#	c #2B1D23",
"-#	c #433C69",
";#	c #433054",
">#	c #91152F",
",#	c #CB0F36",
"'#	c #8B1128",
")#	c #44121B",
"!#	c #38121A",
"~#	c #2B1219",
"{#	c #42121B",
"]#	c #56111D",
"^#	c #CA0F36",
"/#	c #BE0E32",
"(#	c #68223E",
"_#	c #3A3861",
":#	c #442F37",
"<#	c #4E373F",
"[#	c #4C333D",
"}#	c #442B37",
"|#	c #462E39",
"1#	c #472E39",
"2#	c #472F39",
"3#	c #473139",
"4#	c #473239",
"5#	c #422E35",
"6#	c #473054",
"7#	c #87152E",
"8#	c #BD1033",
"9#	c #AB132F",
"0#	c #A6142E",
"a#	c #8D152A",
"b#	c #3C141C",
"c#	c #291218",
"d#	c #6F1524",
"e#	c #A2142E",
"f#	c #BA1232",
"g#	c #CF0F37",
"h#	c #890F26",
"i#	c #3C233B",
"j#	c #3E3861",
"k#	c #463138",
"l#	c #473039",
"m#	c #462D38",
"n#	c #452B37",
"o#	c #341523",
"p#	c #781124",
"q#	c #C51035",
"r#	c #E10F3B",
"s#	c #CF1238",
"t#	c #821327",
"u#	c #43111B",
"v#	c #54121E",
"w#	c #BE1134",
"x#	c #DB103A",
"y#	c #DA103A",
"z#	c #871127",
"A#	c #371018",
"B#	c #302027",
"C#	c #49303A",
"D#	c #422935",
"E#	c #4B353D",
"F#	c #1F1622",
"G#	c #43131C",
"H#	c #93132B",
"I#	c #D51139",
"J#	c #BF1134",
"K#	c #A6102D",
"L#	c #AF102F",
"M#	c #D61038",
"N#	c #D71039",
"O#	c #A6162F",
"P#	c #54141F",
"Q#	c #1F1216",
"R#	c #2B233B",
"S#	c #3B3254",
"T#	c #291E27",
"U#	c #2A1B1F",
"V#	c #4E1821",
"W#	c #7D1325",
"X#	c #921129",
"Y#	c #D10F37",
"Z#	c #DF0E3A",
"`#	c #DB0F3A",
" $	c #9D112B",
".$	c #701322",
"+$	c #4A161E",
"@$	c #2F1A1F",
"#$	c #261A1E",
"$$	c #31273D",
"%$	c #3C3355",
"&$	c #2C2029",
"*$	c #291D22",
"=$	c #29181E",
"-$	c #2D1219",
";$	c #58111E",
">$	c #BB1132",
",$	c #DF103B",
"'$	c #CE1237",
")$	c #791224",
"!$	c #341219",
"~$	c #211419",
"{$	c #271C20",
"]$	c #2A1E20",
"^$	c #33283E",
"/$	c #413861",
"($	c #21162A",
"_$	c #2C254F",
":$	c #2C244F",
"<$	c #382F5B",
"[$	c #3C3356",
"}$	c #2F2433",
"|$	c #2C212C",
"1$	c #251B24",
"2$	c #1C131A",
"3$	c #36131C",
"4$	c #781727",
"5$	c #A0172F",
"6$	c #91182C",
"7$	c #4D151E",
"8$	c #24131A",
"9$	c #21161C",
"0$	c #291F2A",
"a$	c #2C212B",
"b$	c #332942",
"c$	c #403860",
"d$	c #3C3359",
"e$	c #1C1014",
"f$	c #312027",
"g$	c #4E353F",
"h$	c #4A323C",
"i$	c #39252E",
"j$	c #37242C",
"k$	c #37252F",
"l$	c #382636",
"m$	c #332435",
"n$	c #322333",
"o$	c #322334",
"p$	c #352536",
"q$	c #392738",
"r$	c #3B2A3C",
"s$	c #3E2D41",
"t$	c #3C2B3B",
"u$	c #3A2731",
"v$	c #392730",
"w$	c #38262E",
"x$	c #37252C",
"y$	c #39252C",
"z$	c #46252E",
"A$	c #55252F",
"B$	c #50252F",
"C$	c #3D252D",
"D$	c #38252C",
"E$	c #31222A",
"F$	c #32222A",
"G$	c #33242F",
"H$	c #36293A",
"I$	c #3B2C41",
"J$	c #3C2B3C",
"K$	c #382630",
"L$	c #37232C",
"M$	c #412B34",
"N$	c #4D353E",
"O$	c #4D363E",
"P$	c #4D363D",
"Q$	c #4B323C",
"R$	c #452C38",
"S$	c #432936",
"T$	c #472D38",
"U$	c #4C343D",
"V$	c #4B333C",
"W$	c #492F3A",
"                                                                                                                                ",
"  . . . . . . . . . . . . . + @ # # $ % & & & & & & & & & & & & & & & & & & & & & & & & * = # # # - ; . . . . . . . . . . . .   ",
"  . . . . . . . . . . . . ; - > , , ' ) ! ~ ~ ~ ~ ~ ~ ~ ~ ~ ~ ~ ~ ~ ~ ~ ~ ~ ~ ~ ~ ~ ~ ! { ] , , ^ / ( . . . . . . . . . . . .   ",
"  . . . . . . . . . . . . ; _ : < < [ } | | | | | | | | | | | | | | | | | | | | | | | | 1 2 3 < 4 5 6 . . . . . . . . . . . .   ",
"  . . . . . . . . . . . . ; 7 : < < 8 } | | | | | | | | | | | | | | | | | | | | | | | | 1 2 < < < 5 6 . . . . . . . . . . . .   ",
"  . . . . . . . . . . . . ; 7 : < < 8 } | | | | | | | | | | | | | | | | | | | | | | | | 1 2 < < < 5 6 . . . . . . . . . . . .   ",
"  . . . . . . . . . . . . ; 7 : < < 8 } | | | | | | | | | | | | | | | | | | | | | | | | 1 2 < < < 5 6 . . . . . . . . . . . .   ",
"  . . . . . . . . . . . . ; 7 : < < 8 } | | | | | | | | | | | | | | | | | | | | | | | | 1 2 < < < 5 6 . . . . . . . . . . . .   ",
"  . . . . 9 0 a a a a a a b c : < < d e f f g h i i i i i i i i i i i i i i i i j k | | 1 2 < < 3 l m a a a a a a a n . . . .   ",
"  . . . . o p q q q q q q r s : < < t u v w x y z A A A A A A A A A A A A A A B C D | | 1 2 < < 3 E F q q q q q q q G H . . .   ",
"  . . . . I J | | | | | | K L : < < t M N   O P 4 < < < < < < < < < < < < < < < [ Q | | 1 2 < < 3 R S | | | | | | | 0 H . . .   ",
"  . . . . I J | | | | | | K L : < < t M N   O P 4 < < < < < < < < < < < < < < < [ Q | | 1 2 < < 3 R S | | | | | | | 0 H . . .   ",
"  . . . . I J | | | | | | K L : < < t M N   O P 4 < < < < < < < < < < < < < < < [ Q | | 1 2 < < 3 R S | | | | | | | 0 H . . .   ",
"  . . . . I J | | | | | | K L : < < t M N   O P 4 < < < < < < < < < < < < < < < [ Q | | 1 2 < < 3 R S | | | | | | | 0 H . . .   ",
"  T 9 9 9 U ~ | | | V W W X Y : < < t M N   O Z `  . . . . . . . . . . . . . . ...+.W W @.#.< < 3 R S | | | W W W W b $.9 9 T   ",
"  U %.&.&.*.=.| | | -.;.>.,.'.: < < t M N   ).!.~.{.{.{.{.{.{.{.{.{.{.{.{.{.{.{.].^./.>.(._.< < 3 R S | | :.f >.>./.=.<.&.&.[.  ",
"  }.|.| | | | | | | >.v   1.2.: < < t M N     ).O O O O O O O O O O O O O O O O O       3.4.< < 3 R S | | 5.6.      7.| | 8.9.  ",
"  }.|.| | | | | | | >.0.  a.b.: < < t M N                                             N 3.c.< < 3 R S | | 5.d.      -.V | | 9.  ",
"  }.|.| | | | | | | >.0.  a.b.: < < t M N                                             N 3.c.< < 3 R S | | 5.d.      -.V | | 9.  ",
"  }.|.| | | | | | | >.0.  a.b.: < < t M N                                             N 3.c.< < 3 R S | | 5.d.      -.V | | 9.  ",
"  }.|.| | | | | | | >.0.  a.b.: < < t M N     N e.e.e.e.e.e.e.e.e.e.e.e.e.e.e.e.e.    N 3.c.< < 3 R S | | 5.d.      -.| | | 9.  ",
"  a | f.5.g.V | | | >.0.  a.b.: < < t M N     h.i.j.j.j.j.j.j.j.j.j.j.j.j.j.j.i.k.l.  N 3.c.< < 3 R S | | 5.d.      m.f.5.n.!   ",
"  o.p.q.q.>.g.| | | >.0.  a.b.: < < t M N   ).r.s.t.t.t.t.t.t.t.t.t.t.t.t.t.t.t.u.v.  N 3.c.< < 3 R S | | 5.d.      w.q.q.x.5.  ",
"  p y.N   z.f.| | | >.0.  a.b.: < < t M N   O A.4 < < < < < < < < < < < < < < < B.C.  N 3.c.< < 3 R S | | 5.d.            D.E.  ",
"  p F.    z.f.| | | >.0.  a.b.: < < t M N   O P 4 < < < < < < < < < < < < < < < B.C.  N 3.c.< < 3 R S | | 5.d.            0.E.  ",
"  p F.    z.f.| | | >.0.  a.b.: < < t M N   O P 4 < < < < < < < < < < < < < < < B.C.  N 3.c.< < 3 R S | | 5.d.            0.E.  ",
"  p F.    z.f.| | | >.0.  a.b.: < < t M N   O P 4 < < < < < < < < < < < < < < < B.C.  N 3.c.< < 3 R S | | 5.d.            0.E.  ",
"  p F.    G.5.| | | >.0.  a.2.: < 3 H.M N   O A.4 < < < < < < < < < < < < < < < B.C.  N 3.c.4 < 4 R S | | 5.d.            0.E.  ",
"  p F.    x I.J.J.J.q.0.  O K.L.M.M.N.O.    ).P.Q.R.R.R.R.R.R.R.R.R.R.R.R.R.R.R.S.v.    T.U.M.M.V.W.k | | 5.d.            0.E.  ",
"  p F.    D.X.Y.Y.z.w     ).Z.`. +.+++@+#+#+#+q.$+%+%+%+%+%+%+%+%+%+%+%+%+%+%+%+%+&+#+#+6.*+.+.+=+-+K | | 5.d.            0.E.  ",
"  p F.                    ).;+>+w v v ,+,+,+,+,+,+,+,+,+,+,+,+,+,+,+,+,+,+,+,+,+,+,+,+,+,+,+v v v '+)+| | 5.d.            0.E.  ",
"  p F.                    ).;+!+  ~+{+]+]+]+]+]+]+]+]+]+]+]+]+]+]+]+]+]+]+]+]+]+]+]+]+]+]+]+^+~+  /+)+| | 5.d.            0.E.  ",
"  p F.                    ).;+!+(+_+:+<+[+<+<+<+<+<+<+<+<+<+<+<+<+<+<+<+<+<+<+<+<+<+<+<+<+}+|+1+2+/+)+| | 5.d.            0.E.  ",
"  p F.                    ).;+!+(+3+}+4+4+4+4+4+4+4+4+4+4+4+4+4+4+4+4+4+4+4+4+4+4+4+4+4+4+4+5+6+7+/+)+| | 5.d.            0.E.  ",
"  p F.                    ).;+!+(+3+}+4+4+4+4+4+4+4+4+4+4+4+4+4+4+4+4+4+4+4+4+4+4+4+4+4+4+4+8+6+7+/+9+| | 5.d.            0.E.  ",
"  p F.                    ).;+!+(+3+}+4+4+4+4+4+4+4+4+4+4+4+4+4+4+4+4+4+4+4+4+4+4+4+4+4+4+4+5+6+7+0+a+b+c+;.X.            0.E.  ",
"  p F.                    ).;+!+(+3+}+4+4+4+4+4+4+4+4+4+4+4+4+4+4+4+4+4+4+4+4+4+4+4+4+4+4+d+:+e+2+f+g+w w v               0.E.  ",
"  p F.                    ).;+!+(+3+}+4+4+4+4+4+4+4+h+i+j+j+j+j+j+j+j+j+j+j+j+j+j+j+j+j+j+k+l+m+n+f+l.                    0.E.  ",
"  p F.                    ).;+!+(+3+}+4+4+4+4+4+4+4+o+p+q+q+q+q+q+q+q+q+q+q+q+q+q+q+q+q+q+r+s+t+u+f+l.                    0.E.  ",
"  p F.                    ).;+!+(+3+}+4+4+4+4+4+4+4+v+w+x+y+z+y+y+y+y+y+y+y+y+y+y+y+y+y+x+A+B+C+u+f+l.                    0.E.  ",
"  p F.                    ).;+!+(+3+}+4+4+4+4+4+4+4+v+w+y+D+E+F+F+F+F+F+F+F+F+F+F+F+G+H+I+A+B+C+u+f+l.                    0.E.  ",
"  &.J+K+L+@+w             ).;+!+(+3+}+4+4+4+4+4+4+4+v+w+M+N+O+P+Q+R+S+T+T+T+P+U+R+V+W+X+D+Y+B+C+u+f+l.              #+K+L+L+g.  ",
"  Z+`+ @ @.@+@            D.@@@@(+3+}+4+4+4+4+4+4+4+v+w+M+#@$@%@&@*@=@-@;@;@>@,@'@)@!@~@{@]@B+C+u+^@w               /@(@ @`+_@  ",
"  :@<@[@[@}@|@1@            d.6.(+3+}+4+4+4+4+4+4+4+v+w+M+2@3@4@5@6@7@8@N   9@0@a@b@c@d@{@]@B+C+u+e@w             D.f@g@[@[@h@  ",
"  :@<@[@[@}@|@1@            d.6.(+3+}+4+4+4+4+4+4+4+v+w+M+2@i@j@k@l@m@n@N   o@p@q@r@%@s@{@]@B+C+u+e@w             D.f@g@[@[@h@  ",
"  :@<@[@[@}@|@1@            d.6.(+3+}+4+4+4+4+4+4+4+v+w+M+2@t@u@v@w@x@y@N   z@A@B@C@2+D@{@]@B+C+u+e@w             D.f@g@[@[@h@  ",
"  :@<@[@[@}@|@1@            d.6.(+3+}+4+4+4+4+4+4+4+v+w+M+2@E@F@G@H@I@        J@K@L@M@N@O@]@B+C+u+e@w             D.f@g@[@[@h@  ",
"  :@<@[@[@}@P@Q@1@1@1@1@1@  F.6.(+3+}+4+4+4+4+4+4+4+v+w+M+R@S@T@U@V@W@      X@I@Y@Z@`@ #.#]@B+C+u+q.0.1@1@1@1@1@1@  f@g@[@[@+#  ",
"  @###$#$#%#&#*#=#=#=#=#=#=#P@6.(+3+}+4+4+4+4+4+4+4+v+w+-#;#>#,#'#)#!#w   D.~#{#]#^#/#(#_#]@B+C+u+/.=#=#=#=#=#=#=#=#:#<#$#$#[#  ",
"  }#|#1#1#2#3#4#4#4#4#4#4#4#5#6.(+3+}+4+4+4+4+4+4+4+v+w+-#6#7#8#9#0#a#b#D.c#d#e#f#g#h#i#j#]@B+C+u+P@k#4#4#4#4#4#4#4#l#1#1#1#m#  ",
"  . . . . n#$#[@[@[@[@[@[@[@}@q.(+3+}+4+4+4+4+4+4+4+v+w+M+R@o#p#q#r#s#t#u#v#w#x#y#z#A#d@{@]@B+C+u+B#g@[@[@[@[@[@[@[@C#D#. . .   ",
"  . . . . n#$#[@[@[@[@[@[@[@E#q.(+3+}+4+4+4+4+4+4+4+v+w+M+2@F#G#H#I#x#J#K#L#M#N#O#P#Q#R#{@]@B+C+u+B#g@[@[@[@[@[@[@[@C#; . . .   ",
"  . . . . n#$#[@[@[@[@[@[@[@E#q.(+3+}+4+4+4+4+4+4+4+v+w+M+S#T#U#V#W#X#Y#Z#`# $.$+$@$#$$${@Y+B+C+u+B#g@[@[@[@[@[@[@[@C#; . . .   ",
"  . . . . n#$#[@[@[@[@[@[@[@E#q.(+3+}+4+4+4+4+4+4+4+v+w+M+%$&$*$=$-$;$>$,$'$)$!$~${$]$^$/$Y+B+C+u+B#g@[@[@[@[@[@[@[@C#; . . .   ",
"  . . . . n#$#[@[@[@[@[@[@[@E#e@,+($[+_$:$:$:$_$_$_$<$q+I+[$}$|$1$2$3$4$5$6$7$8$9$0$a$b$c$x+d$C+e$f$g@[@[@[@[@[@[@[@C#; . . .   ",
"  . . . . }#[#g$g$g$g$g$g$h@h$i$j$k$l$m$n$n$o$p$q$q$r$s$s$t$u$v$w$x$y$z$A$B$C$D$j$E$F$G$H$I$J$K$L$M$N$g$g$g$g$g$g$g$1#D#. . .   ",
"  . . . . D#}#n#n#n#n#n#n#n#1#+#<#<#<#O$P$P$O$O$<#<#<#<#<#<#<#<#<#<#<#<#<#<#<#<#<#O$P$P$O$O$<#<#<#Q$R$n#n#n#n#n#n#n#S$. . . .   ",
"  . . . . . . . . . . . . . T$[@[@[@[@[@[@[@[@[@[@[@[@[@[@[@[@[@[@[@[@[@[@[@[@[@[@[@[@[@[@[@[@[@[@U$S$. . . . . . . . . . . .   ",
"  . . . . . . . . . . . . . T$[@[@[@[@[@[@[@[@[@[@[@[@[@[@[@[@[@[@[@[@[@[@[@[@[@[@[@[@[@[@[@[@[@[@U$S$. . . . . . . . . . . .   ",
"  . . . . . . . . . . . . . T$[@[@[@[@[@[@[@[@[@[@[@[@[@[@[@[@[@[@[@[@[@[@[@[@[@[@[@[@[@[@[@[@[@[@U$S$. . . . . . . . . . . .   ",
"  . . . . . . . . . . . . . T$[@[@[@[@[@[@[@[@[@[@[@[@[@[@[@[@[@[@[@[@[@[@[@[@[@[@[@[@[@[@[@[@[@[@U$S$. . . . . . . . . . . .   ",
"  . . . . . . . . . . . . . m#g@[@[@[@[@[@[@[@[@[@[@[@[@[@[@[@[@[@[@[@[@[@[@[@[@[@[@[@[@[@[@[@[@[@U$S$. . . . . . . . . . . .   ",
"  . . . . . . . . . . . . . n#V$U$U$U$U$U$U$U$U$U$U$U$U$U$U$U$U$U$U$U$U$U$U$U$U$U$U$U$U$U$U$U$U$U$W$; . . . . . . . . . . . .   ",
"                                                                                                                                "};
