/* XPM */
static char * playerb_xpm[] = {
"64 64 187 2",
"  	c #422835",
". 	c #38222D",
"+ 	c #36202B",
"@ 	c #3C2430",
"# 	c #24161D",
"$ 	c #1C1117",
"% 	c #311D27",
"& 	c #37212C",
"* 	c #331F29",
"= 	c #8B5028",
"- 	c #955627",
"; 	c #973634",
"> 	c #973335",
", 	c #8C2D33",
"' 	c #6A1D2C",
") 	c #571E2B",
"! 	c #3B2430",
"~ 	c #281820",
"{ 	c #1A1017",
"] 	c #BE6F30",
"^ 	c #CC7733",
"/ 	c #D04B47",
"( 	c #D04648",
"_ 	c #C03E44",
": 	c #92263B",
"< 	c #711E2F",
"[ 	c #8F5229",
"} 	c #9E5B29",
"| 	c #C85F3D",
"1 	c #CE5F40",
"2 	c #CE6040",
"3 	c #D04847",
"4 	c #CA4347",
"5 	c #B13741",
"6 	c #A9323F",
"7 	c #842336",
"8 	c #661C2B",
"9 	c #6B1D2D",
"0 	c #2E1C25",
"a 	c #B76A2E",
"b 	c #CF4F45",
"c 	c #C44045",
"d 	c #772031",
"e 	c #8A4F29",
"f 	c #A7612B",
"g 	c #A94737",
"h 	c #AA393B",
"i 	c #C75640",
"j 	c #CF5C41",
"k 	c #D04A47",
"l 	c #CF4648",
"m 	c #AD3540",
"n 	c #AC3440",
"o 	c #A7323F",
"p 	c #852336",
"q 	c #5E1B28",
"r 	c #531D2A",
"s 	c #522432",
"t 	c #692737",
"u 	c #4D1E2A",
"v 	c #CF5843",
"w 	c #93273B",
"x 	c #7D2133",
"y 	c #321E28",
"z 	c #2B1A23",
"A 	c #23151D",
"B 	c #62381E",
"C 	c #774422",
"D 	c #793329",
"E 	c #7A292C",
"F 	c #79292C",
"G 	c #571926",
"H 	c #561925",
"I 	c #4A1722",
"J 	c #22151C",
"K 	c #3E2532",
"L 	c #3A232E",
"M 	c #3F2632",
"N 	c #3F2633",
"O 	c #2D1B24",
"P 	c #EBEBEB",
"Q 	c #C9C1BB",
"R 	c #B2B2B2",
"S 	c #929192",
"T 	c #22141B",
"U 	c #9C989A",
"V 	c #BEBDBD",
"W 	c #A3A2A3",
"X 	c #AEACAD",
"Y 	c #BBB9BA",
"Z 	c #402733",
"` 	c #3E2632",
" .	c #675D61",
"..	c #ABA9AA",
"+.	c #695E63",
"@.	c #8F8A8C",
"#.	c #311E28",
"$.	c #1D1218",
"%.	c #BCBBBB",
"&.	c #BDBCBC",
"*.	c #412734",
"=.	c #463B40",
"-.	c #4A4749",
";.	c #B6B6B6",
">.	c #BFBEBE",
",.	c #ABAAAA",
"'.	c #C6B0B3",
").	c #BABABA",
"!.	c #989898",
"~.	c #341F2A",
"{.	c #301C26",
"].	c #190D14",
"^.	c #AC9093",
"/.	c #994954",
"(.	c #9D5660",
"_.	c #963C4A",
":.	c #AB7B80",
"<.	c #A0696F",
"[.	c #9B565F",
"}.	c #AB8A8D",
"|.	c #922339",
"1.	c #92243A",
"2.	c #7D1F32",
"3.	c #1A0E15",
"4.	c #A2656C",
"5.	c #92273C",
"6.	c #953847",
"7.	c #932C3F",
"8.	c #984451",
"9.	c #97404D",
"0.	c #953948",
"a.	c #92293D",
"b.	c #943847",
"c.	c #A78488",
"d.	c #932E40",
"e.	c #A67076",
"f.	c #92273B",
"g.	c #943042",
"h.	c #932D3F",
"i.	c #984450",
"j.	c #9F5D65",
"k.	c #973F4D",
"l.	c #984A55",
"m.	c #9D5F67",
"n.	c #984B56",
"o.	c #35202B",
"p.	c #954753",
"q.	c #994F59",
"r.	c #9B555E",
"s.	c #943444",
"t.	c #AA7A7F",
"u.	c #AF8589",
"v.	c #9F5E66",
"w.	c #943243",
"x.	c #963B49",
"y.	c #92283C",
"z.	c #96283C",
"A.	c #A22F3E",
"B.	c #8B2936",
"C.	c #B33C3E",
"D.	c #C1ADA6",
"E.	c #AF662D",
"F.	c #9C5030",
"G.	c #B55E37",
"H.	c #A23D40",
"I.	c #A13638",
"J.	c #A7373B",
"K.	c #B83A43",
"L.	c #9E323A",
"M.	c #272024",
"N.	c #4C1722",
"O.	c #5C1A27",
"P.	c #A0999A",
"Q.	c #ABABAB",
"R.	c #989797",
"S.	c #919091",
"T.	c #908F90",
"U.	c #22191E",
"V.	c #1E1219",
"W.	c #341F29",
"X.	c #39141D",
"Y.	c #20131A",
"Z.	c #3B232F",
"`.	c #857F82",
" +	c #8D888A",
".+	c #8D888B",
"++	c #402734",
"                                                . + + + + + + + + + + + + + + + + + + + + + + + + + + + + + + @                 ",
"                                                # $ $ $ $ $ $ $ $ $ $ $ $ $ $ $ $ $ $ $ $ $ $ $ $ $ $ $ $ $ $ %                 ",
"                                                # $ $ $ $ $ $ $ $ $ $ $ $ $ $ $ $ $ $ $ $ $ $ $ $ $ $ $ $ $ $ %                 ",
"                                                # $ $ $ $ $ $ $ $ $ $ $ $ $ $ $ $ $ $ $ $ $ $ $ $ $ $ $ $ $ $ %                 ",
"                                        & * * * = - - - ; > > > > > > > > > > > > > > > > > > , ' ' ' ' ' ' ' ) * * * !         ",
"                                        ~ $ $ { ] ^ ^ ^ / ( ( ( ( ( ( ( ( ( ( ( ( ( ( ( ( ( ( _ : : : : : : : < $ $ $ *         ",
"                                        ~ $ $ { ] ^ ^ ^ / ( ( ( ( ( ( ( ( ( ( ( ( ( ( ( ( ( ( _ : : : : : : : < $ $ $ *         ",
"                                        ~ $ $ { ] ^ ^ ^ / ( ( ( ( ( ( ( ( ( ( ( ( ( ( ( ( ( ( _ : : : : : : : < $ $ $ *         ",
"                        . % % % % % % % [ } } } | 1 1 2 3 ( ( ( ( ( ( ( ( ( ( ( ( ( ( 4 5 5 5 6 : : : 7 8 8 8 9 < < < ) % % % @ ",
"                        0 $ $ $ $ $ $ $ a ^ ^ ^ b ( ( ( ( ( ( ( ( ( ( ( ( ( ( ( ( ( ( c : : : : : : : d $ $ $ 8 : : : ' $ $ $ + ",
"                        0 $ $ $ $ $ $ $ a ^ ^ ^ b ( ( ( ( ( ( ( ( ( ( ( ( ( ( ( ( ( ( c : : : : : : : d $ $ $ 8 : : : ' $ $ $ + ",
"                        0 $ $ $ $ $ $ $ a ^ ^ ^ b ( ( ( ( ( ( ( ( ( ( ( ( ( ( ( ( ( ( c : : : : : : : d $ $ $ 8 : : : ' $ $ $ + ",
"                . 0 0 0 e f f f g h h h i j j j k ( ( ( ( ( ( l m n n n n n n n n n n o : : : p q q q r & & & s t t t u $ $ $ + ",
"                % $ $ $ f ^ ^ ^ v ( ( ( ( ( ( ( ( ( ( ( ( ( ( l w : : : : : : : : : : : : : : x $ $ $ 0               y $ $ $ + ",
"                % $ $ $ f ^ ^ ^ v ( ( ( ( ( ( ( ( ( ( ( ( ( ( l w : : : : : : : : : : : : : : x $ $ $ 0               y $ $ $ + ",
"                % $ $ $ f ^ ^ ^ v ( ( ( ( ( ( ( ( ( ( ( ( ( ( l w : : : : : : : : : : : : : : x $ $ $ 0               y $ $ $ + ",
"        . z z z A $ $ $ B C C C D E E E E E E E E E E E E E E F G H H H H H H H H H H H H H H I $ $ $ J z z z &       K L L L M ",
"        * $ $ $ $ $ $ $ $ $ $ $ $ $ $ $ $ $ $ $ $ $ $ $ $ $ $ $ $ $ $ $ $ $ $ $ $ $ $ $ $ $ $ $ $ $ $ $ $ $ $ %                 ",
"        * $ $ $ $ $ $ $ $ $ $ $ $ $ $ $ $ $ $ $ $ $ $ $ $ $ $ $ $ $ $ $ $ $ $ $ $ $ $ $ $ $ $ $ $ $ $ $ $ $ $ %                 ",
"        * $ $ $ $ $ $ $ $ $ $ $ $ $ $ $ $ $ $ $ $ $ $ $ $ $ $ $ $ $ $ $ $ $ $ $ $ $ $ $ $ $ $ $ $ $ $ $ $ $ $ %                 ",
"        N @ @ @ O $ $ $   P P P P P P P Q P P P P P P P P P P P P P P P P P P P P P P P P P P P R R R S $ $ $ T ~ ~ ~ &         ",
"                % $ $ $ U V P P P P P P P P P P P P P P P P P P P P P P P P P P P P P P P P P P P P P W $ $ $ $ $ $ $ *         ",
"                % $ $ $ X P P P P P P P P P P P P P P P P P P P P P P P P P P P P P P P P P P P P P P W $ $ $ $ $ $ $ *         ",
"                % $ $ $ Y P P P P P P P P P P P P P P P P P P P P P P P P P P P P P P P P P P P P P P W $ $ $ $ $ $ $ *         ",
"                Z ` `  ...P P P P P P P P P P P P P P P P P P P P P P P P P P P P P P P P P P P P P P W $ $ $ 0 ` ` ` Z         ",
"                      +...P P P P P P P P P P P P P P P P P P P P P P P P P P P P P P P P P P P P P P W $ $ $ %                 ",
"                      @.@.P P P P P P P P P P P P P P P P P P P P P P P P P P P P P P P P P P P P P P W $ $ $ %                 ",
"                      @.@.P P P P P P P P P P P P P P P P P P P P P P P P P P P P P P P P P P P P P P W $ $ $ %                 ",
"                      @.@.P P P P P P P P P P P P P P P P P P P P P P P P P P P P P P P P P P P P P P W $ $ $ %                 ",
"                      +...P P P P P P P P P P P P P P P P P P P P P P P P P P P P P P P P P P P P P P W $ $ $ %                 ",
"                      +...P P P P P P P P P P P P P P P P P P P P P P P P P P P P P P P P P P P P P P W $ $ $ %                 ",
"                        @.V P P P P P P P P P P P P P P P P P P P P P P P P P P P P P P P P P P P P P W $ $ $ %                 ",
"                #.$.$.$.%.P P P P P P P P P P P P P P P P P P P P P P P P P P P P P P P P P P P P P P W $ $ $ %                 ",
"                % $ $ $ %.P P P P P P P P P P P P P P P P P P P P P P P P P P P P P P P P P P P P P P W $ $ $ %                 ",
"                % $ $ $ &.P P P P P P P P P P P P P P P P P P P P P P P P P P P P P P P P P P P P P P W $ $ $ %                 ",
"        *.Z Z Z =.-.-.-.&.P P P P P P P P P P P P P P P P P P P P P P P P P P P P P P P P P P P P P P W $ $ $ %                 ",
"        * $ $ $ ;.P P P >.P P P P P P P P P P P P P P P P P P P P P P P P P P P P P P P P P P P P P P W $ $ $ %                 ",
"        * $ $ $ ;.P P P P P P P P P P P P P P P P P P P P P P P P P P P P P P P P P P P P P P P P P P W $ $ $ %                 ",
"        * $ $ $ ;.P P P P P P P P P P P P P P P P P P P P P P P P P P P P P P P P P P P P P P P P P P W $ $ $ %                 ",
"        + # # # ,.P P P P P P '.P P P P P P P P P P P P P P P P P P P P P P P P P P P P P P P P ).).).!.# # # ~.                ",
"                {.].].].^./.(.'._._._._._._._._._._._._._._._._._._._.:.<.<.[.}.|.1.1.1.1.1.1.2.3.3.3.O                         ",
"                % $ $ $ ^.4./.5.:.6._.6.6.6.6.6._._._._._.7.7.7.7.7.8.9.0.0.a.b.: : : : : : : x $ $ $ 0                         ",
"                % $ $ $ c.d.e.f.5.g.: 5.a.a.a.a.a.: a.h.h.7.7.7.i.j.k.k.l.l.m.n.: : : : : : : x $ $ $ 0                         ",
"                o.~ ~ ~ p.q.r.s.t.t.u./.v.w.w.v.(.v.(./././././.i.x.i.i.w.y._._.z.A.A.A.A.A.A.B.$ $ $ 0                         ",
"                        $ $ $ $ ( ( ( ( ( ( ( ( ( ( ( ( ( ( ( ( ( ( ( ( ( ( ( ( ( ( ( ( ( ( ( C.$ $ $ 0                         ",
"                        $ $ $ $ ( ( ( ( ( ( ( ( ( ( ( ( ( ( ( ( ( ( ( ( ( ( ( ( ( ( ( ( ( ( ( C.$ $ $ 0                         ",
"                        $ $ $ $ ( ( ( ( ( ( ( ( ( ( ( ( ( ( ( ( ( ( ( ( ( ( ( ( ( ( ( ( ( ( ( C.$ $ $ 0                         ",
"                        $ $ $ $ ( ( ( ( ( ( ( ( ( ( ( ( ( ( ( ( ( ( ( ( ( ( ( ( ( ( ( ( ( ( ( C.$ $ $ 0                         ",
"                        $ $ $ $ ( ( ( ( ( ( ( ( ( ( ( ( ( ( ( ( ( ( ( ( ( ( ( ( ( ( ( ( ( ( ( C.$ $ $ 0                         ",
"                        $ $ $ $ ( ( ( ( ( ( ( ( ( ( ( ( ( ( ( ( ( ( ( ( ( ( ( ( ( ( ( ( ( ( ( C.$ $ $ 0                         ",
"                        $ $ $ $ ( ( ( ( ( ( ( ( ( ( ( ( ( ( ( ( ( ( ( ( ( ( ( ( ( ( ( ( ( ( ( C.$ $ $ 0                         ",
"                        $ $ $ $ D.( ( ( ( ( ( ( ( ( ( ( ( ( ( ( ( ( ( ( ( ( ( ( ( ( ( ( ( ( ( C.$ $ $ 0                         ",
"                        $ $ $ $ E.^ ^ ^ ( ( ( ( ( ( ( ( ( ( ( ( ( ( ( ( ( ( ( ( ( ( ( ( ( ( ( C.$ $ $ 0                         ",
"                        $ $ $ $ E.^ ^ ^ ( ( ( ( ( ( ( ( ( ( ( ( ( ( ( ( ( ( ( ( ( ( ( ( ( ( ( C.$ $ $ 0                         ",
"                        $ $ $ $ E.^ ^ ^ ( ( ( ( ( ( ( ( ( ( ( ( ( ( ( ( ( ( ( ( ( ( ( ( ( ( ( C.$ $ $ 0                         ",
"                        $ $ $ $ F.G.G.G.( ( ( ( ( ( ( ( ( ( ( ( H.I.I.I.I.I.I.I.I.I.I.J.K.K.K.L.$ $ $ 0                         ",
"                        $ $ $ $ x : : : ( ( ( ( ( ( ( ( ( ( ( ( M.$ $ $ $ $ $ $ $ $ $ N.: : : x $ $ $ 0                         ",
"                        $ $ $ $ x : : : ( ( ( ( ( ( ( ( ( ( ( ( M.$ $ $ $ $ $ $ $ $ $ N.: : : x $ $ $ 0                         ",
"                        $ $ $ $ x : : : ( ( ( ( ( ( ( ( ( ( ( ( M.$ $ $ $ $ $ $ $ $ $ N.: : : x $ $ $ 0                         ",
"                        $ $ $ $ O.' ' ' P.Q.Q.Q.$ ( ( ( R.S.S.T.U.$ $ V.W.* * % $ $ $ X.' ' ' O.$ $ $ 0                         ",
"                        $ $ $ $ $ $ $ $ $ $ $ $ $ $ $ $ $ $ $ $ $ $ $ Y.      ` $ $ $ $ $ $ $ $ $ $ $ 0                         ",
"                        $ $ $ $ $ $ $ $ $ $ $ $ $ $ $ $ $ $ $ $ $ $ $ Y.      ` $ $ $ $ $ $ $ $ $ $ $ 0                         ",
"                        $ $ $ $ $ $ $ $ $ $ $ $ $ $ $ $ $ $ $ $ $ $ $ Y.      ` $ $ $ $ $ $ $ $ $ $ $ 0                         ",
"                        Z.+ + + + + + + + + + + `. + +.+$ + + + + + + &       +++ + + + + + + + + + + Z.                        "};
