/* XPM */
static char * playerb_xpm[] = {
"64 64 676 2",
"  	c #1C1117",
". 	c #422835",
"+ 	c #3D2531",
"@ 	c #39222D",
"# 	c #38222D",
"$ 	c #3C242F",
"% 	c #402734",
"& 	c #331F29",
"* 	c #24151D",
"= 	c #22141B",
"- 	c #2E1B25",
"; 	c #3E2632",
"> 	c #311E27",
", 	c #1E1218",
"' 	c #2B1A23",
") 	c #3E2532",
"! 	c #412834",
"~ 	c #382128",
"{ 	c #2F1B1A",
"] 	c #2E1A18",
"^ 	c #2E1619",
"/ 	c #2E141A",
"( 	c #2D1419",
"_ 	c #291319",
": 	c #251219",
"< 	c #251218",
"[ 	c #301A23",
"} 	c #3E2531",
"| 	c #412835",
"1 	c #35202B",
"2 	c #301E29",
"3 	c #734228",
"4 	c #915427",
"5 	c #935527",
"6 	c #953E31",
"7 	c #953334",
"8 	c #953234",
"9 	c #963235",
"0 	c #913034",
"a 	c #7C262F",
"b 	c #681C2C",
"c 	c #691D2C",
"d 	c #5D1E2B",
"e 	c #3F1F2A",
"f 	c #341F29",
"g 	c #3A232F",
"h 	c #412734",
"i 	c #37212C",
"j 	c #23151C",
"k 	c #1E1219",
"l 	c #0D0B18",
"m 	c #995929",
"n 	c #C57332",
"o 	c #C87532",
"p 	c #CB5642",
"q 	c #CC4547",
"r 	c #C74245",
"s 	c #AA333F",
"t 	c #8E253A",
"u 	c #8F253A",
"v 	c #90253A",
"w 	c #7A2033",
"x 	c #401620",
"y 	c #1D1219",
"z 	c #1F1319",
"A 	c #402733",
"B 	c #21141B",
"C 	c #060916",
"D 	c #9C5A29",
"E 	c #C97532",
"F 	c #CC7733",
"G 	c #CF5843",
"H 	c #D04748",
"I 	c #D04648",
"J 	c #CA4347",
"K 	c #AD3440",
"L 	c #91253B",
"M 	c #92263B",
"N 	c #7D2133",
"O 	c #41151F",
"P 	c #1A1117",
"Q 	c #301D27",
"R 	c #41262B",
"S 	c #41251D",
"T 	c #41251A",
"U 	c #3B2119",
"V 	c #A05B2B",
"W 	c #C97334",
"X 	c #CC7435",
"Y 	c #CF5743",
"Z 	c #CE4548",
"` 	c #CC4447",
" .	c #CD4447",
"..	c #C74246",
"+.	c #AB3440",
"@.	c #91263B",
"#.	c #8D2539",
"$.	c #8E2539",
"%.	c #7A2032",
"&.	c #491621",
"*.	c #30131B",
"=.	c #31131B",
"-.	c #381D27",
";.	c #3F2632",
">.	c #2F1C26",
",.	c #2A1926",
"'.	c #704028",
").	c #9E5B2A",
"!.	c #A45F2A",
"~.	c #A35E2A",
"{.	c #BC5E38",
"].	c #CD5D40",
"^.	c #CE5D41",
"/.	c #D04E46",
"(.	c #C13F45",
"_.	c #AE3540",
":.	c #AE3640",
"<.	c #9E2C3D",
"[.	c #8A2438",
"}.	c #701E2F",
"|.	c #611B29",
"1.	c #721E2F",
"2.	c #751F30",
"3.	c #5F1E2C",
"4.	c #381C27",
"5.	c #301C26",
"6.	c #3B232F",
"7.	c #2A1A22",
"8.	c #1D1117",
"9.	c #1D1118",
"0.	c #090A17",
"a.	c #864D24",
"b.	c #C37231",
"c.	c #CB7733",
"d.	c #CB7732",
"e.	c #CD603F",
"f.	c #D04947",
"g.	c #CD4547",
"h.	c #B63942",
"i.	c #93273B",
"j.	c #93263B",
"k.	c #852336",
"l.	c #511824",
"m.	c #1E1117",
"n.	c #571926",
"o.	c #882337",
"p.	c #711F2F",
"q.	c #32141C",
"r.	c #281922",
"s.	c #180F17",
"t.	c #181017",
"u.	c #000816",
"v.	c #C47231",
"w.	c #CC7833",
"x.	c #CE603F",
"y.	c #D04847",
"z.	c #501824",
"A.	c #171016",
"B.	c #191116",
"C.	c #882437",
"D.	c #721F2F",
"E.	c #32131B",
"F.	c #35202A",
"G.	c #42282F",
"H.	c #522F24",
"I.	c #58321D",
"J.	c #582E1E",
"K.	c #592322",
"L.	c #591F23",
"M.	c #561B22",
"N.	c #944C2B",
"O.	c #C66D35",
"P.	c #CD7237",
"Q.	c #CD7236",
"R.	c #CE5D40",
"S.	c #CA4346",
"T.	c #C94246",
"U.	c #C64146",
"V.	c #B13741",
"W.	c #8C2539",
"X.	c #892437",
"Y.	c #7C2233",
"Z.	c #4D1A25",
"`.	c #21151D",
" +	c #22151D",
".+	c #541C28",
"++	c #812437",
"@+	c #8A263A",
"#+	c #6C1F2E",
"$+	c #9B5A2B",
"%+	c #B2672D",
"&+	c #B2682D",
"*+	c #B35F32",
"=+	c #B4463C",
"-+	c #B53C3F",
";+	c #BF4840",
">+	c #CD5543",
",+	c #AC3540",
"'+	c #A6313F",
")+	c #A5303F",
"!+	c #9D2C3D",
"~+	c #701E2E",
"{+	c #531924",
"]+	c #4F1B27",
"^+	c #42212C",
"/+	c #492432",
"(+	c #5C2736",
"_+	c #612737",
":+	c #602736",
"<+	c #4C202C",
"[+	c #26141B",
"}+	c #CD6D39",
"|+	c #D05145",
"1+	c #CD4548",
"2+	c #9C2C3D",
"3+	c #8B2438",
"4+	c #5F1B29",
"5+	c #141016",
"6+	c #1A1116",
"7+	c #26171F",
"8+	c #3B242F",
"9+	c #20141A",
"0+	c #B3682D",
"a+	c #CD7833",
"b+	c #CE6E3A",
"c+	c #D05146",
"d+	c #D14648",
"e+	c #601B29",
"f+	c #151116",
"g+	c #1B1117",
"h+	c #27171F",
"i+	c #3B2430",
"j+	c #432835",
"k+	c #20131A",
"l+	c #1B1116",
"m+	c #39232E",
"n+	c #191017",
"o+	c #4E2C1B",
"p+	c #9D5B29",
"q+	c #B4692E",
"r+	c #B56033",
"s+	c #B7473D",
"t+	c #B83D40",
"u+	c #B83E40",
"v+	c #B73E40",
"w+	c #B53D3F",
"x+	c #8A2736",
"y+	c #812234",
"z+	c #551925",
"A+	c #171116",
"B+	c #24161D",
"C+	c #2C1A23",
"D+	c #291921",
"E+	c #2A1922",
"F+	c #39222E",
"G+	c #36212C",
"H+	c #271720",
"I+	c #25161E",
"J+	c #2D1918",
"K+	c #512E1C",
"L+	c #5D351E",
"M+	c #5D301F",
"N+	c #5F2523",
"O+	c #5F2024",
"P+	c #5F2124",
"Q+	c #5E2024",
"R+	c #481721",
"S+	c #441620",
"T+	c #2F131B",
"U+	c #23151D",
"V+	c #25171E",
"W+	c #160F17",
"X+	c #160E17",
"Y+	c #161016",
"Z+	c #191117",
"`+	c #1B1016",
" @	c #13030C",
".@	c #000000",
"+@	c #090000",
"@@	c #0E0004",
"#@	c #180B13",
"$@	c #3A232E",
"%@	c #301D26",
"&@	c #2F1C25",
"*@	c #25161D",
"=@	c #1C0814",
"-@	c #666063",
";@	c #AFAEAF",
">@	c #AEADAD",
",@	c #AEAEAE",
"'@	c #A19D9B",
")@	c #A19E9D",
"!@	c #9C9B9B",
"~@	c #807F80",
"{@	c #828181",
"]@	c #767576",
"^@	c #484547",
"/@	c #180B12",
"(@	c #3C2430",
"_@	c #402633",
":@	c #1A0E15",
"<@	c #40393D",
"[@	c #9A9698",
"}@	c #DEDDDD",
"|@	c #EDEDED",
"1@	c #EDEDEE",
"2@	c #E5E4E2",
"3@	c #E6E4E3",
"4@	c #EEEEEE",
"5@	c #E2E2E2",
"6@	c #D4D4D4",
"7@	c #D5D5D5",
"8@	c #B9B9B9",
"9@	c #676567",
"0@	c #12000A",
"a@	c #21141A",
"b@	c #321E28",
"c@	c #585456",
"d@	c #B6B4B5",
"e@	c #DEDEDE",
"f@	c #EBEBEB",
"g@	c #ECECEC",
"h@	c #C9C8C9",
"i@	c #6B696B",
"j@	c #110008",
"k@	c #15070F",
"l@	c #5F5C5D",
"m@	c #C6C5C6",
"n@	c #C8C8C8",
"o@	c #6B696A",
"p@	c #34202A",
"q@	c #3B2B33",
"r@	c #726D6F",
"s@	c #C3C1C2",
"t@	c #4A3640",
"u@	c #7B7477",
"v@	c #BFBDBE",
"w@	c #2B1A22",
"x@	c #422734",
"y@	c #55454C",
"z@	c #888385",
"A@	c #B3B0B1",
"B@	c #594A51",
"C@	c #8E898B",
"D@	c #ADABAC",
"E@	c #8D888A",
"F@	c #AEABAC",
"G@	c #422735",
"H@	c #4E3B44",
"I@	c #7F787B",
"J@	c #BBBABA",
"K@	c #4B3640",
"L@	c #7A7376",
"M@	c #BEBDBD",
"N@	c #422935",
"O@	c #61555A",
"P@	c #A4A1A2",
"Q@	c #D3D3D3",
"R@	c #321F29",
"S@	c #24161E",
"T@	c #201019",
"U@	c #625E5F",
"V@	c #C5C4C4",
"W@	c #E8E8E8",
"X@	c #170811",
"Y@	c #626061",
"Z@	c #CAC9C9",
"`@	c #322029",
" #	c #231A1F",
".#	c #1E141A",
"+#	c #646263",
"@#	c #CACACA",
"##	c #3E2631",
"$#	c #422E37",
"%#	c #5B5457",
"&#	c #686667",
"*#	c #CBCACA",
"=#	c #1F1219",
"-#	c #4A4648",
";#	c #B8B8B8",
">#	c #E5E5E5",
",#	c #E6E6E6",
"'#	c #D0CFCF",
")#	c #4A4749",
"!#	c #BDBCBD",
"~#	c #EAEAEA",
"{#	c #341F2A",
"]#	c #4A4748",
"^#	c #BBBBBB",
"/#	c #E9E8E8",
"(#	c #E7E6E6",
"_#	c #EBECEC",
":#	c #E4E4E4",
"<#	c #C4C3C4",
"[#	c #6A686A",
"}#	c #13000A",
"|#	c #1D1218",
"1#	c #2D1B24",
"2#	c #473F43",
"3#	c #A5A3A4",
"4#	c #D5D4D5",
"5#	c #D6D6D6",
"6#	c #D8D7D8",
"7#	c #E0DCDC",
"8#	c #DED8D9",
"9#	c #D7CCCD",
"0#	c #CFC0C2",
"a#	c #DED7D8",
"b#	c #DED7D7",
"c#	c #E0DBDB",
"d#	c #DFDADA",
"e#	c #DFD9DA",
"f#	c #DFD9D9",
"g#	c #E0DBDC",
"h#	c #DDD6D7",
"i#	c #DDD7D7",
"j#	c #C7C4C4",
"k#	c #A9A9A9",
"l#	c #ABABAB",
"m#	c #9B9B9B",
"n#	c #605C5E",
"o#	c #27131D",
"p#	c #3F2633",
"q#	c #322129",
"r#	c #251D21",
"s#	c #211A1E",
"t#	c #5E4E51",
"u#	c #A98588",
"v#	c #9C535C",
"w#	c #A8757C",
"x#	c #B28A8F",
"y#	c #994A55",
"z#	c #97404D",
"A#	c #97414D",
"B#	c #97414E",
"C#	c #973F4C",
"D#	c #963E4C",
"E#	c #963E4B",
"F#	c #994853",
"G#	c #A66F75",
"H#	c #9F646B",
"I#	c #9E6168",
"J#	c #9C5C64",
"K#	c #A37378",
"L#	c #932E40",
"M#	c #932C3F",
"N#	c #8C2B3D",
"O#	c #61222E",
"P#	c #1B181C",
"Q#	c #20181D",
"R#	c #291C23",
"S#	c #3B2530",
"T#	c #180D14",
"U#	c #5B4A4D",
"V#	c #A88387",
"W#	c #9E5962",
"X#	c #994954",
"Y#	c #9F5C65",
"Z#	c #943344",
"`#	c #943545",
" $	c #943444",
".$	c #953646",
"+$	c #953746",
"@$	c #953847",
"#$	c #932F41",
"$$	c #963D4B",
"%$	c #98424F",
"&$	c #953D4B",
"*$	c #943A49",
"=$	c #1C1017",
"-$	c #573E43",
";$	c #9F6A71",
">$	c #9A4C57",
",$	c #9F5B63",
"'$	c #994D58",
")$	c #9A505B",
"!$	c #974551",
"~$	c #943948",
"{$	c #933545",
"]$	c #912A3E",
"^$	c #943847",
"/$	c #953C4A",
"($	c #953B4A",
"_$	c #943746",
":$	c #943646",
"<$	c #974350",
"[$	c #9B525C",
"}$	c #974250",
"|$	c #96414E",
"1$	c #964450",
"2$	c #964652",
"3$	c #9A545E",
"4$	c #96424F",
"5$	c #A3453A",
"6$	c #A5463A",
"7$	c #96283C",
"8$	c #A2413A",
"9$	c #8F2739",
"0$	c #621C29",
"a$	c #151016",
"b$	c #311E28",
"c$	c #4C2731",
"d$	c #7F3D47",
"e$	c #82444D",
"f$	c #803F48",
"g$	c #964B53",
"h$	c #B86E72",
"i$	c #B97276",
"j$	c #B46469",
"k$	c #AF5057",
"l$	c #AD4A52",
"m$	c #AA3843",
"n$	c #AE4D55",
"o$	c #B0545C",
"p$	c #B0565D",
"q$	c #B0545B",
"r$	c #AE4B53",
"s$	c #AD4851",
"t$	c #AC454E",
"u$	c #AB3F49",
"v$	c #AC444D",
"w$	c #AA3944",
"x$	c #A93541",
"y$	c #AB3D48",
"z$	c #C16438",
"A$	c #C36439",
"B$	c #CB7633",
"C$	c #C76D36",
"D$	c #C76D37",
"E$	c #BF6238",
"F$	c #A75930",
"G$	c #101016",
"H$	c #150F15",
"I$	c #150E15",
"J$	c #000D13",
"K$	c #852C2E",
"L$	c #D24647",
"M$	c #D04547",
"N$	c #D14547",
"O$	c #CF623F",
"P$	c #CC7634",
"Q$	c #CB6E37",
"R$	c #892E30",
"S$	c #080F15",
"T$	c #852C2F",
"U$	c #D24749",
"V$	c #C64244",
"W$	c #080F16",
"X$	c #852A2D",
"Y$	c #D24446",
"Z$	c #0A0610",
"`$	c #805A58",
" %	c #CD7876",
".%	c #D04246",
"+%	c #D04548",
"@%	c #CE623F",
"#%	c #CF5245",
"$%	c #0F0612",
"%%	c #74584C",
"&%	c #C17F64",
"*%	c #CE663B",
"=%	c #CD7038",
"-%	c #CE6A3B",
";%	c #CE663D",
">%	c #CD7037",
",%	c #CC7633",
"'%	c #CD6F38",
")%	c #110C17",
"!%	c #6F3E1D",
"~%	c #BC6D2C",
"{%	c #CC7832",
"]%	c #CD7137",
"^%	c #CD6C39",
"/%	c #CD7336",
"(%	c #100C17",
"_%	c #6F4020",
":%	c #BD6E30",
"<%	c #CE623E",
"[%	c #CE613F",
"}%	c #C64345",
"|%	c #130E16",
"1%	c #673722",
"2%	c #AE5F32",
"3%	c #BD6736",
"4%	c #BC6735",
"5%	c #C75840",
"6%	c #CF4648",
"7%	c #B64143",
"8%	c #B23C3E",
"9%	c #B33C3E",
"0%	c #B93D41",
"a%	c #C03E45",
"b%	c #B73B41",
"c%	c #7E292E",
"d%	c #0D0F16",
"e%	c #562123",
"f%	c #903636",
"g%	c #9D3B3A",
"h%	c #9B3B3A",
"i%	c #B84141",
"j%	c #742E31",
"k%	c #5A2124",
"l%	c #5A1F23",
"m%	c #5F2025",
"n%	c #7F2631",
"o%	c #952A3A",
"p%	c #671E2A",
"q%	c #501724",
"r%	c #862237",
"s%	c #92253B",
"t%	c #90243B",
"u%	c #B43842",
"v%	c #57262A",
"w%	c #181218",
"x%	c #2A121A",
"y%	c #681C2B",
"z%	c #501823",
"A%	c #862337",
"B%	c #B43A43",
"C%	c #D1494A",
"D%	c #D0484A",
"E%	c #CF4749",
"F%	c #D04749",
"G%	c #CF4849",
"H%	c #CC4648",
"I%	c #58272A",
"J%	c #1D1319",
"K%	c #2D131A",
"L%	c #40151F",
"M%	c #6A1D2C",
"N%	c #70172A",
"O%	c #90686B",
"P%	c #AE9697",
"Q%	c #B19D9D",
"R%	c #B29E9E",
"S%	c #846566",
"T%	c #B3393B",
"U%	c #CE4547",
"V%	c #AE7F7F",
"W%	c #9F8687",
"X%	c #9E8486",
"Y%	c #9B8283",
"Z%	c #443739",
"`%	c #271219",
" &	c #521824",
".&	c #6C1D2D",
"+&	c #4C1722",
"@&	c #181116",
"#&	c #231218",
"$&	c #32111A",
"%&	c #3E3135",
"&&	c #4B484A",
"*&	c #4D4B4D",
"=&	c #4D4C4D",
"-&	c #312F32",
";&	c #4E1A1F",
">&	c #5D2024",
",&	c #4B3C3E",
"'&	c #424042",
")&	c #413F41",
"!&	c #403E40",
"~&	c #241C20",
"{&	c #281219",
"]&	c #261219",
"^&	c #1B0F16",
"/&	c #271F23",
"(&	c #2D2629",
"_&	c #2D262A",
":&	c #21181D",
"<&	c #281820",
"[&	c #321B27",
"}&	c #696164",
"|&	c #817C7E",
"1&	c #837E80",
"2&	c #484145",
"3&	c #311B26",
"                                                                                                                                ",
"  . . . . . . . . . . . . . . . . . . . . . . . + @ @ @ @ @ @ @ @ @ @ @ @ @ @ @ @ @ @ @ @ @ @ @ @ @ @ @ @ # $ % . . . . . . .   ",
"  . . . . . . . . . . . . . . . . . . . . . . . & * = = = = = = = = = = = = = = = = = = = = = = = = = = = = - ; . . . . . . .   ",
"  . . . . . . . . . . . . . . . . . . . . . . . > ,                                                         ' ) . . . . . . .   ",
"  . . . . . . . . . . . . . . . . . . . . ! ! . ~ { ] ] ^ / / / / / / / / / / / / / / / / / ( _ : : : : : < [ } | ! . . . . .   ",
"  . . . . . . . . . . . . . . . . . . . + 1 & 2 3 4 5 5 6 7 8 8 8 8 8 8 8 8 8 8 8 8 8 8 8 9 0 a b c c c c c d e & f g h . . .   ",
"  . . . . . . . . . . . . . . . . . . . i j k l m n o o p q q q q q q q q q q q q q q q q q r s t u u u u v w x y z > A . . .   ",
"  . . . . . . . . . . . . . . . . . . . i B   C D E F F G H I I I I I I I I I I I I I I I I J K L M M M M M N O P   Q A . . .   ",
"  . . . . . . . . . . . . h A A A A A % R S T U V W X X Y H I I I I I I I I I I I I I Z `  ...+.L M @.u #.$.%.&.*.=.-.;.A % h   ",
"  . . . . . . . . . . . A 1 >.>.>.>.>.,.'.).!.~.{.].^.^./.I I I I I I I I I I I I I Z (._.:.+.<.M M [.}.|.|.b 1.2.2.3.4.>.5.6.  ",
"  . . . . . . . . . . . ; 7.8.9.9.9.9.0.a.b.c.d.e.f.H H I I I I I I I I I I I I I I g.h.M i.j.M M M k.l.  m.n.o.M @.p.q.  z 1   ",
"  . . . . . . . . . . . ; r.s.s.t.t.t.u.a.v.F w.x.y.I I I I I I I I I I I I I I I I g.h.L M M M M j.k.z.A.B.n.C.j.M D.E.  k F.  ",
"  . . . . . . . . A ; ; G.H.I.I.J.K.L.M.N.O.P.Q.R.y.I I I I I I S.T.T.T.T.T.T.T.T.T.U.V.@.M @.W.C.X.Y.Z.`. +.+++@+@+#+*.  k F.  ",
"  . . . . . . . h 1 7.r.H.$+%+&+*+=+-+-+;+>+Y Y /.H I I I I I Z ,+'+'+'+'+'+'+'+'+'+)+!+M M #.~+l.{+]+^+g g /+(+_+:+<+[+  k F.  ",
"  . . . . . . . A >.8.s.I.%+F w.}+|+I I I I I I I I I I I I I 1+2+M M M M M M M M M M M M M 3+4+5+6+7+8+. . . . . | F.9+  k F.  ",
"  . . . . . . . % >.9.s.I.0+a+a+b+c+d+d+d+d+d+d+d+d+d+d+d+d+d+Z !+j.j.j.j.j.j.j.j.j.j.j.j.j.3+e+f+g+h+i+j+. . . . . F.k+l+, F.  ",
"  . . . . ;.i+8+m+' 8.n+o+p+q+q+r+s+t+u+u+u+u+u+u+u+u+u+u+u+v+w+x+y+y+y+y+y+y+y+y+y+y+y+y+y+%.z+A+  B+1 i+8++ h . . @ C+D+E+F+  ",
"  . . . | G+H+I+I+k+  g+J+K+L+L+M+N+O+P+P+P+P+P+P+P+P+P+P+P+P+Q+R+S+S+S+S+S+S+S+S+S+S+S+S+S+O T+g+  k U+V+I+Q ;.. . % ) } } A   ",
"  . . . ! & k           g+s.W+X+W+Y+Y+Y+Y+Y+Y+Y+Y+Y+Y+Y+Y+Y+Y+Y+Z+P P P P P P P P P P P P P P g+          l+' ) . . . . . . .   ",
"  . . . ! & , `+`+         @.@.@.@.@.@.@.@.@.@.@.@.@.@.@.@.@.@.@.@.@.@.@.@.@.@.@.@.@.@.@.@.@.@.@+@+@@@#@    C+; j+. . . . . .   ",
"  . . . . $@%@&@- *@    =@-@;@>@>@>@>@,@'@)@,@>@>@>@>@>@>@>@>@>@>@>@>@>@>@>@>@>@>@>@>@>@>@>@,@!@~@{@]@^@/@  7+f i i (@! . . .   ",
"  . . . . h A _@) - 8.:@<@[@}@|@|@|@|@1@2@3@|@|@|@|@|@|@|@|@|@|@|@|@|@|@|@|@|@|@|@|@|@|@|@|@4@5@6@7@8@9@0@  , a@B = b@A . . .   ",
"  . . . . . . . % >.9./@c@d@e@f@f@f@f@f@f@f@f@f@f@f@f@f@f@f@f@f@f@f@f@f@f@f@f@f@f@f@f@f@f@f@f@f@g@|@h@i@j@          Q A . . .   ",
"  . . . . . . . A &@  k@l@m@g@f@f@f@f@f@f@f@f@f@f@f@f@f@f@f@f@f@f@f@f@f@f@f@f@f@f@f@f@f@f@f@f@f@f@g@n@o@j@    l+`+g+%@A . . .   ",
"  . . . . . . . h g p@q@r@s@f@f@f@f@f@f@f@f@f@f@f@f@f@f@f@f@f@f@f@f@f@f@f@f@f@f@f@f@f@f@f@f@f@f@f@g@n@o@j@  I+b@F.F.8+h . . .   ",
"  . . . . . . . . ! h t@u@v@f@f@f@f@f@f@f@f@f@f@f@f@f@f@f@f@f@f@f@f@f@f@f@f@f@f@f@f@f@f@f@f@f@f@f@g@n@o@j@  w@+ ! ! ! . . . .   ",
"  . . . . . . . . . x@y@z@A@f@f@f@f@f@f@f@f@f@f@f@f@f@f@f@f@f@f@f@f@f@f@f@f@f@f@f@f@f@f@f@f@f@f@f@g@n@o@j@  C+) . . . . . . .   ",
"  . . . . . . . . . h B@C@D@f@f@f@f@f@f@f@f@f@f@f@f@f@f@f@f@f@f@f@f@f@f@f@f@f@f@f@f@f@f@f@f@f@f@f@g@n@o@j@  C+) . . . . . . .   ",
"  . . . . . . . . . h B@E@F@f@f@f@f@f@f@f@f@f@f@f@f@f@f@f@f@f@f@f@f@f@f@f@f@f@f@f@f@f@f@f@f@f@f@f@g@n@o@j@  C+) . . . . . . .   ",
"  . . . . . . . . . G@H@I@J@f@f@f@f@f@f@f@f@f@f@f@f@f@f@f@f@f@f@f@f@f@f@f@f@f@f@f@f@f@f@f@f@f@f@f@g@n@o@j@  C+) . . . . . . .   ",
"  . . . . . . . . . . K@L@M@f@f@f@f@f@f@f@f@f@f@f@f@f@f@f@f@f@f@f@f@f@f@f@f@f@f@f@f@f@f@f@f@f@f@f@g@n@o@j@  C+) . . . . . . .   ",
"  . . . . . . . . | h N@O@P@Q@f@f@f@f@f@f@f@f@f@f@f@f@f@f@f@f@f@f@f@f@f@f@f@f@f@f@f@f@f@f@f@f@f@f@g@n@o@j@  C+) . . . . . . .   ",
"  . . . . . . . % R@S@T@U@V@W@f@f@f@f@f@f@f@f@f@f@f@f@f@f@f@f@f@f@f@f@f@f@f@f@f@f@f@f@f@f@f@f@f@f@g@n@o@j@  C+) . . . . . . .   ",
"  . . . . . . . A >.9.X@Y@Z@f@f@f@f@f@f@f@f@f@f@f@f@f@f@f@f@f@f@f@f@f@f@f@f@f@f@f@f@f@f@f@f@f@f@f@g@n@o@j@  C+) . . . . . . .   ",
"  . . . . . . . % `@ #.#+#@#f@f@f@f@f@f@f@f@f@f@f@f@f@f@f@f@f@f@f@f@f@f@f@f@f@f@f@f@f@f@f@f@f@f@f@g@n@o@j@  C+) . . . . . . .   ",
"  . . . . _@##} $#%#&#&#{@*#f@f@f@f@f@f@f@f@f@f@f@f@f@f@f@f@f@f@f@f@f@f@f@f@f@f@f@f@f@f@f@f@f@f@f@g@n@o@j@  C+) . . . . . . .   ",
"  . . . ! p@B =#-#;#>#,#e@'#f@f@f@f@f@f@f@f@f@f@f@f@f@f@f@f@f@f@f@f@f@f@f@f@f@f@f@f@f@f@f@f@f@f@f@g@n@o@j@  C+) . . . . . . .   ",
"  . . . ! f k   )#!#~#f@f@~#f@f@f@f@f@f@f@f@f@f@f@f@f@f@f@f@f@f@f@f@f@f@f@f@f@f@f@f@f@f@f@f@f@f@f@g@n@o@j@  C+) . . . . . . .   ",
"  . . . ! {#k+9.]#^#~#f@f@f@f@/#(#_#f@f@f@f@f@f@f@f@f@f@f@f@f@f@f@f@f@f@f@f@f@f@f@f@f@f@f@f@_#W@:#>#<#[#}#|#C+) . . . . . . .   ",
"  . . . . @ 1#' 2#3#4#5#6#7#8#9#0#a#b#b#b#b#b#b#b#b#b#b#b#b#b#b#b#b#a#c#d#e#f#g#h#h#h#h#h#h#i#j#k#l#m#n#o#' {#p#. . . . . . .   ",
"  . . . . . . . % q#r#s#t#u#v#w#x#y#z#A#z#z#z#z#B#B#B#B#B#C#D#D#E#E#F#G#H#I#J#K#L#M#M#M#M#M#N#O#P#Q#R#S#. . . . . . . . . . .   ",
"  . . . . . . . A >.8.T#U#V#W#X#y#Y#Z#`# $ $`# $.$+$+$@$@$#$M#M#Z#$$%$z#D#D#&$*$M M M M M M [.4+f+  h+8+. . . . . . . . . . .   ",
"  . . . . . . . % Q k+=$-$;$>$,$@$'$)$!$~${$]$^$/$/$($^$_$:$:$_$<$[$}$|$1$2$3$4$5$6$7$7$8$8$9$0$a$  h+8+. . . . . . . . . . .   ",
"  . . . . . . . h F+b@b$c$d$e$f$g$h$i$j$k$l$m$n$o$p$q$r$s$s$s$s$t$u$v$v$w$x$u$y$z$A$B$B$C$D$E$F$G$  h+8+. . . . . . . . . . .   ",
"  . . . . . . . . . . . i+H$I$J$K$L$M$N$d+d+d+d+d+d+d+d+d+d+d+d+d+d+d+d+d+d+d+d+O$O$P$P$P$P$Q$R$S$  h+8+. . . . . . . . . . .   ",
"  . . . . . . . . . . . (@    S$T$U$I I I I I I I I I I I I I I I I I I I I I I I I I I I I V$R$S$  h+8+. . . . . . . . . . .   ",
"  . . . . . . . . . . . (@    S$T$U$I I I I I I I I I I I I I I I I I I I I I I I I I I I I V$R$S$  h+8+. . . . . . . . . . .   ",
"  . . . . . . . . . . . (@    S$T$U$I I I I I I I I I I I I I I I I I I I I I I I I I I I I V$R$S$  h+8+. . . . . . . . . . .   ",
"  . . . . . . . . . . . (@    S$T$U$I I I I I I I I I I I I I I I I I I I I I I I I I I I I V$R$S$  h+8+. . . . . . . . . . .   ",
"  . . . . . . . . . . . (@    W$X$Y$I I I I I I I I I I I I I I I I I I I I I I I I I I I I V$R$S$  h+8+. . . . . . . . . . .   ",
"  . . . . . . . . . . . (@    Z$`$ %.%+%+%}+}+@%#%I I I I I I I I I I I I I I I I I I I I I V$R$S$  h+8+. . . . . . . . . . .   ",
"  . . . . . . . . . . . (@    $%%%&%*%=%-%}+}+;%>%,%,%,%'%I I I I I I I I I I I I I I I I I V$R$S$  h+8+. . . . . . . . . . .   ",
"  . . . . . . . . . . . (@    )%!%~%w.{%]%^%}+/%/%/%/%/%P$I I I I I I I I I I I I I I I I I V$R$S$  h+8+. . . . . . . . . . .   ",
"  . . . . . . . . . . . (@    (%_%:%a+{%<%[%@%@%@%@%F @%I I I I I d+d+d+d+d+d+d+d+d+I I I d+}%R$S$  h+8+. . . . . . . . . . .   ",
"  . . . . . . . . . . . (@    |%1%2%3%4%5%+%I I I I I I I I I 6%7%8%8%8%8%8%8%8%8%8%9%0%a%a%b%c%d%  h+8+. . . . . . . . . . .   ",
"  . . . . . . . . . . . (@    Y+e%f%g%h%i%d+I I I I I I I I I g.j%k%l%l%l%l%l%l%l%l%m%n%<.<.o%p%5+  h+8+. . . . . . . . . . .   ",
"  . . . . . . . . . . . (@    A+q%r%s%t%u%d+I I I I I I I I I g.v%w%A.A.A.A.A.A.A.Y+x%y%M M [.4+f+  h+8+. . . . . . . . . . .   ",
"  . . . . . . . . . . . (@    A+z%A%M v B%C%D%D%E%I I I F%G%E%H%I%J%              g+K%c M M [.4+f+  h+8+. . . . . . . . . . .   ",
"  . . . . . . . . . . . (@    Z+L%M%D.N%O%P%Q%R%S%T%6%U%V%W%X%Y%Z%|#  k+%@Q %@'   g+`% &D.D..&+&@&  h+8+. . . . . . . . . . .   ",
"  . . . . . . . . . . . (@      #&*.E.$&%&&&*&=&-&;&Q+>&,&'&)&!&~&    * ;.A p##     m.{&E.E.*.]&    h+8+. . . . . . . . . . .   ",
"  . . . . . . . . . . . (@              `+^&^&^&=$g+P P `+`+`+`+      I+h . | m+8.                  h+8+. . . . . . . . . . .   ",
"  . . . . . . . . . . . (@=#k k k k k k k k k , /&(&_&_&:&, k k k k k 7+h . | $@=#k k k k k k k k , <&i+. . . . . . . . . . .   ",
"  . . . . . . . . . . . A @ F.F.F.F.F.F.F.F.F.[&}&|&1&1&2&3&F.F.F.F.1 # ! . . ) 1 F.F.F.F.F.F.F.F.F.# ;.. . . . . . . . . . .   ",
"                                                                                                                                "};
