/* XPM */
static char * wallone_xpm[] = {
"64 64 98 2",
"  	c #523A42",
". 	c #21151B",
"+ 	c #1C1117",
"@ 	c #26181E",
"# 	c #4B353D",
"$ 	c #1B1117",
"% 	c #503840",
"& 	c #301D27",
"* 	c #35222B",
"= 	c #4C353D",
"- 	c #432A36",
"; 	c #1F131A",
"> 	c #22151C",
", 	c #442A36",
"' 	c #3E2632",
") 	c #432936",
"! 	c #412734",
"~ 	c #3F2633",
"{ 	c #33202A",
"] 	c #34202A",
"^ 	c #422835",
"/ 	c #1F1319",
"( 	c #22141C",
"_ 	c #3D2531",
": 	c #402734",
"< 	c #39232E",
"[ 	c #3A232E",
"} 	c #3A232F",
"| 	c #402733",
"1 	c #311D27",
"2 	c #3F2632",
"3 	c #321E28",
"4 	c #35202A",
"5 	c #1E1218",
"6 	c #331F29",
"7 	c #281821",
"8 	c #291821",
"9 	c #311E27",
"0 	c #291922",
"a 	c #22161C",
"b 	c #1E1219",
"c 	c #22151B",
"d 	c #1D1218",
"e 	c #321F28",
"f 	c #503940",
"g 	c #4F3840",
"h 	c #513941",
"i 	c #2E1F25",
"j 	c #503941",
"k 	c #36222B",
"l 	c #321F29",
"m 	c #311E28",
"n 	c #432935",
"o 	c #412835",
"p 	c #000000",
"q 	c #38222D",
"r 	c #331E29",
"s 	c #271820",
"t 	c #26191F",
"u 	c #1D1117",
"v 	c #20141A",
"w 	c #38262D",
"x 	c #503841",
"y 	c #39262E",
"z 	c #39262D",
"A 	c #23151C",
"B 	c #24161D",
"C 	c #3C2531",
"D 	c #3C2431",
"E 	c #37212C",
"F 	c #271720",
"G 	c #26171F",
"H 	c #27171F",
"I 	c #1D1118",
"J 	c #20131A",
"K 	c #2B1C22",
"L 	c #2A1C22",
"M 	c #21141B",
"N 	c #2B1C23",
"O 	c #291B21",
"P 	c #35212B",
"Q 	c #462C38",
"R 	c #462D38",
"S 	c #3B2630",
"T 	c #39252E",
"U 	c #38252E",
"V 	c #432B36",
"W 	c #402934",
"X 	c #452C38",
"Y 	c #2F1D27",
"Z 	c #321E29",
"` 	c #3E2532",
" .	c #36212C",
"..	c #37212D",
"+.	c #39222E",
"@.	c #2B1A23",
"#.	c #35202B",
"$.	c #2C1B24",
"                                        . + + @                               # $ + + .               % & & & & & & & *         ",
"                                        . + + @                               # $ + + .               % & & & & & & & *         ",
"                                        . + + @                               # $ + + .               % & & & & & & & *         ",
"                                        . + + @                               = $ + + .               % & & & & & & & *         ",
"- - - - - - - - - - - - - - - - - - - - ; + + > , - - - - - - - - - - - - - - ' + + + ; - - - - - - - ) ! ! ! ! ! ! ! ~ { ] ] ] ",
"^ ^ ^ ^ ^ ^ ^ ^ ^ ^ ^ ^ ^ ^ ^ ^ ^ ^ ^ ^ / + + ( ^ ^ ^ ^ ^ ^ ^ ^ ^ ^ ^ ^ ^ ^ ^ _ + + + / ^ ^ ^ ^ ^ ^ ^ ^ ^ ^ ^ ^ ^ ^ ^ : & & & & ",
"^ ^ ^ ^ ^ ^ ^ ^ ^ ^ ^ ^ ^ ^ ^ ^ ^ ^ ^ ^ / + + ( ^ ^ ^ ^ ^ ^ ^ ^ ^ ^ ^ ^ ^ ^ ^ _ + + + / ^ ^ ^ ^ ^ ^ ^ ^ ^ ^ ^ ^ ^ ^ ^ : & & & & ",
"^ ^ ^ ^ ^ ^ ^ ^ ^ ^ ^ ^ ^ ^ ^ ^ ^ ^ ^ ^ / + + ( ^ ^ ^ ^ ^ ^ ^ ^ ^ ^ ^ ^ ^ ^ ^ _ + + + / ^ ^ ^ ^ ^ ^ ^ ^ ^ ^ ^ ^ ^ ^ ^ : & & & & ",
"^ ^ ^ ^ ^ ^ ^ ^ ^ ^ ^ ^ ^ ^ ^ ^ ^ ^ ^ ^ / + + ( ^ ^ ^ ^ ^ ^ ^ ! < < < [ ^ ^ ^ _ + + + / ^ ^ ^ : < < < } ^ ^ ^ ^ ^ ^ ^ ! } } } } ",
"^ ^ ^ ^ ^ ^ ^ ^ ^ ^ ^ ^ ^ ^ ^ ^ ^ ^ ^ ^ / + + ( ^ ^ ^ ^ ^ ^ ^ | & & & 1 ^ ^ ^ _ + + + / ^ ^ ^ 2 & & & 3 ^ ^ ^ ^ ^ ^ ^ ^ ^ ^ ^ ^ ",
"^ ^ ^ ^ ^ ^ ^ ^ ^ ^ ^ ^ ^ ^ ^ ^ ^ ^ ^ ^ / + + ( ^ ^ ^ ^ ^ ^ ^ | & & & 1 ^ ^ ^ _ + + + / ^ ^ ^ 2 & & & 3 ^ ^ ^ ^ ^ ^ ^ ^ ^ ^ ^ ^ ",
"^ ^ ^ ^ ^ ^ ^ ^ ^ ^ ^ ^ ^ ^ ^ ^ ^ ^ ^ ^ / + + ( ^ ^ ^ ^ ^ ^ ^ | & & & 1 ^ ^ ^ _ + + + / ^ ^ ^ 2 & & & 3 ^ ^ ^ ^ ^ ^ ^ ^ ^ ^ ^ ^ ",
"4 4 4 4 4 4 4 4 4 4 4 4 4 4 4 4 4 4 4 4 5 + + ; 4 4 4 4 4 4 4 6 7 7 7 8 4 4 4 9 + + + 5 4 4 4 3 7 7 7 0 4 4 4 4 4 4 4 4 4 4 4 4 ",
"+ + + + + + + + + + + + + + + + + + + + + + + + + + + + + + + + + + + + + + + + + + + + + + + + + + + + + + + + + + + + + + + + ",
"+ + + + + + + + + + + + + + + + + + + + + + + + + + + + + + + + + + + + + + + + + + + + + + + + + + + + + + + + + + + + + + + + ",
"+ + + + + + + + + + + + + + + + + + + + + + + + + + + + + + + + + + + + + + + + + + + + + + + + + + + + + + + + + + + + + + + + ",
"a a a a b 5 5 5 a a a a a a a c + + + + c a a c 5 5 5 5 a a a a a a a a a a a a a a a c + + + d a a a a a a a a a a a a a a a a ",
"        * & & e               % + + + + f     g & & & & h                             f + + + i                                 ",
"        * & & e               % + + + + j     g & & & & h                             j + + + i                                 ",
"        * & & e               % + + + + j     g & & & & h                             j + + + i                                 ",
"        k & & l               g + + + + %     g & & & m h                             % + + + i                                 ",
"n n n n ^ o o ^ n n p p p p p p p p p p p p p p p p p p p p p p p p p p p p p p p p p p p p p p p p p p p n n n n n n n n n n n ",
"^ ^ ^ ^ ^ ^ ^ ^ ^ ^ p p p p p p p p p p p p p p p p p p p p p p p p p p p p p p p p p p p p p p p p p p p ^ ^ ^ ^ ^ ^ ^ ^ ^ ^ ^ ",
"^ ^ ^ ^ ^ ^ ^ ^ ^ ^ p p p p p p p p p p p p p p p p p p p p p p p p p p p p p p p p p p p p p p p p p p p ^ ^ ^ ^ ^ ^ ^ ^ ^ ^ ^ ",
"^ ^ ^ ^ ^ ^ ^ ^ ^ ^ p p p p p p p p p p p p p p p p p p p p p p p p p p p p p p p p p p p p p p p p p p p ^ ^ ^ ^ ^ ^ ^ ^ ^ ^ ^ ",
"^ ^ ^ ^ ^ ^ ^ ^ ^ ^ p p p p p p p p p p p p p p p p p p p p p p p p p p p p p p p p p p p p p p p p p p p q q q ^ ^ ^ ^ ^ ^ ^ ^ ",
"^ ^ ^ ^ ^ ^ ^ ^ ^ ^ p p p p p p p p p p p p p p p p p p p p p p p p p p p p p p p p p p p p p p p p p p p & & & o ^ ^ ^ ^ ^ ^ ^ ",
"^ ^ ^ ^ ^ ^ ^ ^ ^ ^ p p p p p p p p p p p p p p p p p p p p p p p p p p p p p p p p p p p p p p p p p p p & & & o ^ ^ ^ ^ ^ ^ ^ ",
"^ ^ ^ ^ ^ ^ ^ ^ ^ ^ p p p p p p p p p p p p p p p p p p p p p p p p p p p p p p p p p p p p p p p p p p p & & & o ^ ^ ^ ^ ^ ^ ^ ",
"r r r r r r r r r r p p p p p p p p p p p p p p p p p p p p p p p p p p p p p p p p p p p p p p p p p p p s s s 3 r r r r r r r ",
"+ + + + + + + + + + p p p p p p p p p p p p p p p p p p p p p p p p p p p p p p p p p p p p p p p p p p p + + + + + + + + + + + ",
"+ + + + + + + + + + p p p p p p p p p p p p p p p p p p p p p p p p p p p p p p p p p p p p p p p p p p p + + + + + + + + + + + ",
"+ + + + + + + + + + p p p p p p p p p p p p p p p p p p p p p p p p p p p p p p p p p p p p p p p p p p p + + + + + + + + + + + ",
"t t t t t t t t / / p p p p p p p p p p p p p p p p p p p p p p p p p p p p p p p p p p p p p p p p p p p t t t + + + u v v v v ",
"              h & & p p p p p p p p p p p p p p p p p p p p p p p p p p p p p p p p p p p p p p p p p p p       v + + . w w w w ",
"              h & & p p p p p p p p p p p p p p p p p p p p p p p p p p p p p p p p p p p p p p p p p p p       v + + . w w w w ",
"              h & & p p p p p p p p p p p p p p p p p p p p p p p p p p p p p p p p p p p p p p p p p p p       v + + . w w w w ",
"h h h h h h h x & & p p p p p p p p p p p p p p p p p p p p p p p p p p p p p p p p p p p p p p p p p p p h h h v + + . y z z z ",
"^ ^ ^ ^ ^ ^ ^ ^ & & p p p p p p p p p p p p p p p p p p p p p p p p p p p p p p p p p p p p p p p p p p p ^ ^ ^ b + + A ^ ^ ^ ^ ",
"^ ^ ^ ^ ^ ^ ^ o & & p p p p p p p p p p p p p p p p p p p p p p p p p p p p p p p p p p p p p p p p p p p ^ ^ ^ b + + A ^ ^ ^ ^ ",
"^ ^ ^ ^ ^ ^ ^ o & & & & ! ^ ^ ^ ^ ^ ^ ^ ^ ^ ^ ^ ^ ^ ^ ^ 5 + + B ^ ^ ^ ^ ^ ^ ^ ~ & & & m ^ ^ ^ ^ ^ ^ ^ ^ ^ ^ ^ ^ b + + A ^ ^ ^ ^ ",
"^ ^ ^ ^ ^ ^ ^ o & & & & ! ^ ^ ^ ^ ^ ^ ^ ^ ^ ^ ^ ^ ^ ^ ^ 5 + + B ^ ^ ^ ^ ^ ^ ^ ~ & & & m ^ ^ ^ ^ ^ ^ ^ ^ ^ ^ ^ ^ b + + A ^ ^ ^ ^ ",
"^ ^ ^ ^ ^ ^ ^ ^ C D D C q E E q ^ ^ ^ ^ ^ ^ ^ ^ ^ ^ ^ ^ 5 + + B ^ ^ ^ ^ ^ ^ ^ ! D D D _ ^ ^ ^ ^ ^ ^ ^ ^ ^ ^ ^ ^ b + + A ^ ^ ^ ^ ",
"^ ^ ^ ^ ^ ^ ^ ^ ^ ^ ^ ^ 3 & & m ^ ^ ^ ^ ^ ^ ^ ^ ^ ^ ^ ^ 5 + + B ^ ^ ^ ^ ^ ^ ^ ^ ^ ^ ^ ^ ^ ^ ^ ^ ^ ^ ^ ^ ^ ^ ^ ^ b + + A ^ ^ ^ ^ ",
"^ ^ ^ ^ ^ ^ ^ ^ ^ ^ ^ ^ 3 & & m ^ ^ ^ ^ ^ ^ ^ ^ ^ ^ ^ ^ 5 + + B ^ ^ ^ ^ ^ ^ ^ ^ ^ ^ ^ ^ ^ ^ ^ ^ ^ ^ ^ ^ ^ ^ ^ ^ b + + A ^ ^ ^ ^ ",
"^ ^ ^ ^ ^ ^ ^ ^ ^ ^ ^ ^ 3 & & m ^ ^ ^ ^ ^ ^ ^ ^ ^ ^ ^ ^ 5 + + B ^ ^ ^ ^ ^ ^ ^ ^ ^ ^ ^ ^ ^ ^ ^ ^ ^ ^ ^ ^ ^ ^ ^ ^ b + + A ^ ^ ^ ^ ",
"& & & & & & & & & & & 1 F G G H & & & & & & & & & & & & I + + J 1 & & & & & & & & & & & & & & & & & & & & & & & d + + / 1 & & & ",
"+ + + + + + + + + + + + + + + + + + + + + + + + + + + + + + + + + + + + + + + + + + + + + + + + + + + + + + + + + + + + + + + + ",
"+ + + + + + + + + + + + + + + + + + + + + + + + + + + + + + + + + + + + + + + + + + + + + + + + + + + + + + + + + + + + + + + + ",
"+ + + + + + + + + + + + + + + + + + + + + + + + + + + + + + + + + + + + + + + + + + + + + + + + + + + + + + + + + + + + + + + + ",
"K K K K K K K L + + + + L K K K K K K K M J J c N K K K K K K K K K K K K K K O + + + d K K K K K K K L J J J v L K K K K K K K ",
"              h + + + $ g               6 & & P                               = $ + + .               % & & & & h               ",
"              h + + + $ g               l & & P                               # $ + + .               % & & & & h               ",
"              h + + + $ g               l & & P                               # $ + + .               % & & & & h               ",
"              h + + + $ g               l & & P                               = $ + + .               % & & & & h               ",
"Q Q Q R S T T U + + + + V Q Q Q Q Q Q Q m & & 6 R Q Q Q Q Q Q Q Q Q Q Q Q Q Q W + + + J Q Q Q Q Q Q Q X 2 2 2 2 X Q Q Q Q Q Q Q ",
"^ ^ ^ ^ 6 & & Y + + + + | ^ ^ ^ ^ ^ ^ ^ m & & Z ^ ^ ^ ^ ^ ^ ^ ^ ^ ^ ^ ^ ^ ^ ^ _ + + + / ^ ^ ^ ^ ^ ^ ^ ^ ^ ^ ^ ^ ^ ^ ^ ^ ^ ^ ^ ^ ",
"^ ^ ^ ^ 6 & & Y + + + + | ^ ^ ^ ^ ^ ^ ^ m & & Z ^ ^ ^ ^ ^ ^ ^ ^ ^ ^ ^ ^ ^ ^ ^ _ + + + / ^ ^ ^ ^ ^ ^ ^ ^ ^ ^ ^ ^ ^ ^ ^ ^ ^ ^ ^ ^ ",
"^ ^ ^ ^ 6 & & Y + + + + | ^ ^ ^ ^ ^ ^ ^ m & & Z ^ ^ ^ ^ ^ ^ ^ ^ ^ ^ ^ ^ ^ ^ ^ _ + + + / ^ ^ ^ ^ ^ ^ ^ ^ ^ ^ ^ ^ ^ ^ ^ ^ ^ ^ ^ ^ ",
"^ ^ ^ ^ ` _ _ C + + + + | ^ ^ ^ ^ ^ ^ ^ ` _ _ ` ^ ^ ^ ^ ^ ^ ^ :  . . . .^ ^ ^ _ + + + / ^ ^ ^ |  . . ...^ ^ ^ ^ ^ ^ ^ ^ ^ ^ ^ ^ ",
"^ ^ ^ ^ ^ ^ ^ ! + + + + | ^ ^ ^ ^ ^ ^ ^ ^ ^ ^ ^ ^ ^ ^ ^ ^ ^ ^ | & & & 1 ^ ^ ^ _ + + + / ^ ^ ^ 2 & & & 3 ^ ^ ^ ^ ^ ^ ^ ^ ^ ^ ^ ^ ",
"^ ^ ^ ^ ^ ^ ^ ! + + + + | ^ ^ ^ ^ ^ ^ ^ ^ ^ ^ ^ ^ ^ ^ ^ ^ ^ ^ | & & & 1 ^ ^ ^ _ + + + / ^ ^ ^ 2 & & & 3 ^ ^ ^ ^ ^ ^ ^ ^ ^ ^ ^ ^ ",
"^ ^ ^ ^ ^ ^ ^ ! + + + + | ^ ^ ^ ^ ^ ^ ^ ^ ^ ^ ^ ^ ^ ^ ^ ^ ^ ^ | & & & 1 ^ ^ ^ _ + + + / ^ ^ ^ 2 & & & 3 ^ ^ ^ ^ ^ ^ ^ ^ ^ ^ ^ ^ ",
"+.+.+.+.+.+.+.q + + + + E +.+.+.+.+.+.+.+.+.+.+.+.+.+.+.+.+.+.E @.@.@.@.+.+.+.#.+ + + b +.+.+. .@.@.@.$.+.+.+.+.+.+.+.+.+.+.+.+."};
